<svg width="73" height="73" viewBox="0 0 73 73" fill="none" xmlns="http://www.w3.org/2000/svg">
<path d="M34.6855 22.2129H38.9043V26.4316H34.6855V22.2129Z" fill="#DE5600"/>
<path d="M56.2275 49.5406L46.468 28.5201C47.0288 27.2328 47.3418 25.8136 47.3418 24.3223C47.3418 20.8792 45.683 17.8167 43.123 15.8905V7.30664C43.123 3.81731 40.2842 0.978516 36.7949 0.978516C33.3056 0.978516 30.4668 3.81731 30.4668 7.30664V15.8905C27.9069 17.8167 26.248 20.8792 26.248 24.3223C26.248 25.8137 26.5611 27.2328 27.1219 28.5201L17.3624 49.5406C11.1403 50.8665 0.794922 54.0024 0.794922 60.3223C0.794922 62.9546 2.5758 65.2922 6.08791 67.2701L8.15819 63.5942C6.18916 62.4854 5.01367 61.2622 5.01367 60.3223C5.01367 58.927 7.78075 56.4071 15.0962 54.4215L12.4949 60.0244C11.337 62.5077 11.9355 65.3665 13.777 67.1942L11.875 71.1159L15.6709 72.957L17.5916 68.9969C20.2227 69.2659 22.806 67.8601 23.967 65.37L30.1294 52.0957C32.3119 51.9563 34.548 51.8849 36.7949 51.8849C39.0418 51.8849 41.278 51.9563 43.4604 52.0957L49.6244 65.3732C50.7912 67.8752 53.389 69.2635 55.9983 68.9969L57.919 72.957L61.7148 71.1159L59.8145 67.198C61.6217 65.4111 62.2769 62.5592 61.0963 60.0277L58.4935 54.4216C65.8091 56.407 68.5762 58.927 68.5762 60.3223C68.5762 61.2624 67.4007 62.4855 65.4318 63.5943L67.5019 67.2703C71.0142 65.2924 72.7951 62.9548 72.7951 60.3223C72.7949 53.9972 62.433 50.863 56.2275 49.5406ZM34.6855 7.30664C34.6855 6.14353 35.6318 5.19727 36.7949 5.19727C37.958 5.19727 38.9043 6.14353 38.9043 7.30664V13.9876C38.2225 13.8487 37.5172 13.7754 36.7949 13.7754C36.0727 13.7754 35.3673 13.8487 34.6855 13.9876V7.30664ZM36.7949 17.9941C40.2842 17.9941 43.123 20.8329 43.123 24.3223C43.123 27.8116 40.2842 30.6504 36.7949 30.6504C33.3056 30.6504 30.4668 27.8116 30.4668 24.3223C30.4668 20.8329 33.3056 17.9941 36.7949 17.9941ZM20.1418 63.5903C19.6491 64.6468 18.3953 65.1034 17.3386 64.6105C16.2862 64.1199 15.8231 62.8694 16.3198 61.8042L29.9864 32.3681C31.0598 33.2778 32.3155 33.9781 33.6919 34.4027L20.1418 63.5903ZM32.1395 47.7656L36.7949 37.7378L41.4503 47.7657C38.3692 47.6362 35.2206 47.6362 32.1395 47.7656ZM53.4496 63.5935L39.898 34.4027C41.2743 33.9781 42.53 33.2778 43.6033 32.3681L57.2715 61.8073C57.7641 62.8636 57.308 64.1176 56.2514 64.6104C55.1908 65.1052 53.9384 64.6417 53.4496 63.5935Z" fill="#DE5600"/>
</svg>
