<svg width="75" height="63" viewBox="0 0 75 63" fill="none" xmlns="http://www.w3.org/2000/svg">
<rect x="0.217285" y="22.9756" width="73.9358" height="39.5502" fill="#FFE39C"/>
<g clip-path="url(#clip0)">
<path d="M51.0279 12.2563V9.98276C51.0279 6.79314 48.433 4.19824 45.2434 4.19824H29.1277C25.9382 4.19824 23.3432 6.79314 23.3432 9.98276V12.2563H7.22754V56.0568H67.1436V12.2563H51.0279ZM26.8539 9.98276C26.8539 8.72896 27.8739 7.70897 29.1277 7.70897H45.2434C46.4971 7.70897 47.5172 8.72896 47.5172 9.98276V12.2563H26.8539V9.98276ZM63.6328 15.767V21.6415L37.1855 36.9109L10.7383 21.6415V15.767H63.6328ZM10.7383 52.5461V25.6954L37.1855 40.9647L63.6328 25.6954V52.5462H10.7383V52.5461Z" fill="black"/>
<path d="M33.1565 24.124H41.2144V27.6347H33.1565V24.124Z" fill="black"/>
</g>
<defs>
<clipPath id="clip0">
<rect width="59.916" height="59.916" fill="white" transform="translate(7.22754 0.168945)"/>
</clipPath>
</defs>
</svg>
