<svg width="73" height="73" viewBox="0 0 73 73" fill="none" xmlns="http://www.w3.org/2000/svg">
<g clip-path="url(#clip0)">
<path d="M72.0406 32.1156C71.9111 30.4298 71.1329 28.8959 69.8495 27.7962L63.6218 22.458V7.2892C63.6218 6.12426 62.6774 5.17996 61.5126 5.17996H53.0753C51.9104 5.17996 50.9942 6.1244 50.9942 7.2892V11.6103L40.3192 2.51258C37.9328 0.468029 34.4688 0.46831 32.09 2.50653L2.27137 27.7959C-0.365778 30.0554 -0.707919 34.0429 1.58709 36.7218C3.33632 38.7559 6.13828 39.4045 8.52694 38.565V70.8503C8.52694 72.0152 9.44326 72.9595 10.6081 72.9595H61.5124C62.6774 72.9595 63.6217 72.0151 63.6217 70.8503V38.5654C66.0874 39.4373 68.8303 38.7066 70.5358 36.719C71.6355 35.4353 72.17 33.8004 72.0406 32.1156ZM55.1846 9.39844H59.4313V18.842L55.1846 15.2261V9.39844ZM44.6662 68.741H27.4825V51.8384H44.6662V68.741ZM59.4313 68.741H48.8567V49.7573C48.8567 48.5924 47.9123 47.6481 46.7475 47.6481H25.3731C24.2082 47.6481 23.292 48.5925 23.292 49.7573V68.741H12.7174V35.5311L36.1938 15.6167L59.4315 35.5114V68.741H59.4313ZM67.3332 33.9728C66.5854 34.8444 65.2559 34.9723 64.3578 34.2022L37.5735 11.2432C36.7867 10.5686 35.6266 10.5658 34.8364 11.2361C34.2656 11.7202 7.87557 34.1063 7.76391 34.2011C6.8805 34.9569 5.54456 34.8539 4.78814 33.974C4.03087 33.0901 4.13325 31.7557 5.00878 31.0054L34.8275 5.71588C35.6235 5.03413 36.7786 5.03399 37.5739 5.7156L67.1044 30.9993C67.9872 31.7559 68.0895 33.0904 67.3332 33.9728Z" fill="#DE5600"/>
<path d="M42.5287 26.2725H29.5917C28.4268 26.2725 27.5106 27.2169 27.5106 28.3817V41.0374C27.5106 42.2023 28.4269 43.1466 29.5917 43.1466H42.5287C43.6936 43.1466 44.6379 42.2022 44.6379 41.0374V28.3817C44.6381 27.2168 43.6936 26.2725 42.5287 26.2725ZM40.4476 38.9283H31.701V30.4911H40.4476V38.9283Z" fill="#DE5600"/>
<path d="M38.3096 60.3034C39.4745 60.3034 40.4188 59.3591 40.4188 58.1942C40.4188 57.0293 39.4745 56.085 38.3096 56.085C37.1447 56.085 36.2003 57.0293 36.2003 58.1942C36.2003 59.3591 37.1447 60.3034 38.3096 60.3034Z" fill="#DE5600"/>
</g>
<defs>
<clipPath id="clip0">
<rect width="72" height="72" fill="white" transform="translate(0.0595703 0.96875)"/>
</clipPath>
</defs>
</svg>
