<svg width="227" height="243" viewBox="0 0 227 243" fill="none" xmlns="http://www.w3.org/2000/svg">
<rect x="23.397" y="23.5049" width="203" height="203" stroke="#DE5600"/>
<path d="M124.897 242.584L140.475 227.006L109.319 227.006L124.897 242.584Z" fill="#DE5600"/>
<g clip-path="url(#clip0)">
<path d="M149.907 144.455C149.206 144.455 148.638 145.023 148.638 145.724V156.647C148.638 160.272 145.809 163.19 142.191 163.305C141.962 163.298 141.737 163.28 141.515 163.252C141.497 163.25 141.479 163.248 141.461 163.245C141.38 163.234 141.3 163.222 141.22 163.208C141.168 163.199 141.116 163.191 141.064 163.18C141.021 163.172 140.979 163.163 140.936 163.154C137.774 162.476 135.395 159.659 135.395 156.297C135.395 155.596 134.827 155.028 134.127 155.028H97.2916V108.536C97.2916 107.836 96.7235 107.268 96.0229 107.268C95.3222 107.268 94.7541 107.836 94.7541 108.536V155.029H82.8799C82.1792 155.029 81.6111 155.596 81.6111 156.297C81.6111 161.564 85.896 165.849 91.1631 165.849H142.409C142.502 165.849 142.592 165.839 142.68 165.82C144.913 165.65 146.988 164.684 148.563 163.069C150.248 161.341 151.176 159.061 151.176 156.647V145.724C151.176 145.023 150.608 144.455 149.907 144.455ZM91.1631 163.312C87.7287 163.312 84.8627 160.83 84.2638 157.566H132.941C133.21 159.596 134.121 161.48 135.574 162.967C135.689 163.086 135.808 163.2 135.928 163.312H91.1631Z" fill="#DE5600"/>
<path d="M149.907 89.1934H96.0229C95.3223 89.1934 94.7542 89.7615 94.7542 90.4622V103.46C94.7542 104.161 95.3223 104.729 96.0229 104.729C96.7236 104.729 97.2917 104.161 97.2917 103.46V91.7311H148.638V140.648C148.638 141.349 149.206 141.917 149.907 141.917C150.608 141.917 151.176 141.349 151.176 140.648V90.4623C151.176 89.7615 150.608 89.1934 149.907 89.1934Z" fill="#DE5600"/>
<path d="M168.059 102.92C168.056 102.914 168.054 102.908 168.052 102.902L162.722 91.7576C162.511 91.3168 162.066 91.0361 161.578 91.0361C161.089 91.0361 160.644 91.3166 160.433 91.7576L155.103 102.902C155.101 102.908 155.099 102.914 155.096 102.92C155.019 103.084 154.974 103.267 154.974 103.461V111.325C154.974 112.026 155.542 112.594 156.243 112.594C156.943 112.594 157.511 112.026 157.511 111.325V104.73H165.644V149.385H157.511V116.4C157.511 115.699 156.943 115.131 156.243 115.131C155.542 115.131 154.974 115.699 154.974 116.4V161.203C154.974 163.322 156.698 165.047 158.817 165.047H164.338C166.457 165.047 168.181 163.323 168.181 161.203V103.461C168.181 103.267 168.137 103.084 168.059 102.92ZM158.261 102.181L159.89 98.7749H163.265L164.894 102.181H158.261ZM164.338 162.509H158.817C158.097 162.509 157.512 161.923 157.512 161.203V157.695H165.644V161.203C165.644 161.923 165.058 162.509 164.338 162.509ZM165.644 155.158H157.512V151.923H165.644V155.158Z" fill="#DE5600"/>
<path d="M132.613 136.557H113.316C111.877 136.557 110.706 135.386 110.706 133.946V120.21C110.706 119.708 111.112 119.302 111.614 119.302C112.115 119.302 112.522 119.708 112.522 120.21V133.946C112.522 134.384 112.878 134.741 113.316 134.741H132.613C133.052 134.741 133.408 134.384 133.408 133.946V120.21C133.408 119.708 133.815 119.302 134.316 119.302C134.818 119.302 135.224 119.708 135.224 120.21V133.946C135.224 135.386 134.053 136.557 132.613 136.557Z" fill="#DE5600"/>
<path fill-rule="evenodd" clip-rule="evenodd" d="M132.613 136.883H113.316C111.697 136.883 110.38 135.566 110.38 133.947V120.211C110.38 119.53 110.933 118.978 111.614 118.978C112.295 118.978 112.847 119.53 112.847 120.211V133.947C112.847 134.205 113.058 134.416 113.316 134.416H132.613C132.872 134.416 133.083 134.205 133.083 133.947V120.211C133.083 119.53 133.635 118.978 134.316 118.978C134.997 118.978 135.549 119.53 135.549 120.211V133.947C135.549 135.566 134.233 136.883 132.613 136.883ZM113.316 136.558H132.613C134.053 136.558 135.224 135.386 135.224 133.947V120.211C135.224 119.709 134.818 119.303 134.316 119.303C133.815 119.303 133.408 119.709 133.408 120.211V133.947C133.408 134.385 133.052 134.741 132.613 134.741H113.316C112.878 134.741 112.522 134.385 112.522 133.947V120.211C112.522 119.709 112.115 119.303 111.614 119.303C111.112 119.303 110.705 119.709 110.705 120.211V133.947C110.705 135.386 111.877 136.558 113.316 136.558Z" fill="#DE5600"/>
<path d="M136.587 123.391C136.354 123.391 136.122 123.302 135.944 123.125L124.651 111.831C123.721 110.901 122.209 110.901 121.279 111.831L109.986 123.125C109.631 123.479 109.056 123.479 108.701 123.125C108.347 122.77 108.347 122.195 108.701 121.84L119.995 110.547C121.633 108.909 124.297 108.909 125.935 110.547L137.229 121.84C137.583 122.195 137.583 122.77 137.229 123.125C137.051 123.302 136.819 123.391 136.587 123.391Z" fill="#DE5600"/>
<path fill-rule="evenodd" clip-rule="evenodd" d="M125.935 110.546C124.297 108.909 121.633 108.909 119.995 110.546L108.701 121.84C108.347 122.195 108.347 122.77 108.701 123.124C109.056 123.479 109.631 123.479 109.986 123.124L121.279 111.831C122.209 110.901 123.721 110.901 124.65 111.831L135.944 123.124C136.122 123.302 136.354 123.39 136.586 123.39C136.819 123.39 137.051 123.302 137.229 123.124C137.583 122.77 137.583 122.195 137.229 121.84L125.935 110.546ZM137.458 123.354C137.218 123.595 136.902 123.715 136.586 123.715C136.271 123.715 135.955 123.595 135.715 123.354L124.421 112.06L124.421 112.06C123.618 111.258 122.312 111.258 121.509 112.06L110.215 123.354C110.215 123.354 110.215 123.354 110.215 123.354C109.734 123.836 108.953 123.836 108.472 123.354C107.99 122.873 107.99 122.092 108.472 121.61C108.472 121.61 108.472 121.61 108.472 121.61L119.765 110.317C121.53 108.552 124.4 108.552 126.165 110.317L137.458 121.61C137.94 122.092 137.94 122.873 137.458 123.354Z" fill="#DE5600"/>
<path d="M126.597 136.559H119.333C118.831 136.559 118.424 136.153 118.424 135.651V127.592C118.424 126.027 119.697 124.754 121.262 124.754H124.668C126.232 124.754 127.505 126.027 127.505 127.592V135.651C127.505 136.153 127.099 136.559 126.597 136.559ZM120.241 134.743H125.689V127.592C125.689 127.028 125.231 126.57 124.668 126.57H121.262C120.699 126.57 120.241 127.028 120.241 127.592V134.743Z" fill="#DE5600"/>
<path fill-rule="evenodd" clip-rule="evenodd" d="M126.598 136.884H119.333C118.652 136.884 118.1 136.332 118.1 135.651V127.592C118.1 125.847 119.518 124.429 121.263 124.429H124.668C126.412 124.429 127.831 125.847 127.831 127.592V135.651C127.831 136.332 127.279 136.884 126.598 136.884ZM125.69 127.592C125.69 127.028 125.231 126.57 124.668 126.57H121.263C120.699 126.57 120.241 127.028 120.241 127.592V134.743H125.69V127.592ZM125.365 134.418V127.592C125.365 127.208 125.052 126.895 124.668 126.895H121.263C120.879 126.895 120.566 127.208 120.566 127.592V134.418H125.365ZM119.333 136.559H126.598C127.099 136.559 127.506 136.152 127.506 135.651V127.592C127.506 126.027 126.233 124.754 124.668 124.754H121.263C119.698 124.754 118.425 126.027 118.425 127.592V135.651C118.425 136.152 118.831 136.559 119.333 136.559Z" fill="#DE5600"/>
</g>
<circle cx="22.8964" cy="23.0048" r="22.5136" fill="#DE5600"/>
<path d="M23.0965 13.5329C24.2165 13.5329 25.1765 13.7329 25.9765 14.1329C26.7765 14.5169 27.3765 15.0529 27.7765 15.7409C28.1925 16.4289 28.4005 17.1969 28.4005 18.0449C28.4005 19.1169 28.0965 20.0129 27.4885 20.7329C26.8965 21.4369 26.0565 21.8609 24.9685 22.0049V22.1249C26.1365 22.4609 27.0485 22.9649 27.7045 23.6369C28.3765 24.2929 28.7125 25.2049 28.7125 26.3729C28.7125 27.7969 28.2405 28.9569 27.2965 29.8529C26.3525 30.7329 25.0005 31.1729 23.2405 31.1729C21.4325 31.1729 19.9765 30.7169 18.8725 29.8049C17.7685 28.8769 17.1365 27.5089 16.9765 25.7009H19.6885C19.7845 26.6609 20.1285 27.4289 20.7205 28.0049C21.3125 28.5649 22.1125 28.8449 23.1205 28.8449C24.0645 28.8449 24.7845 28.5969 25.2805 28.1009C25.7925 27.6049 26.0485 26.9649 26.0485 26.1809C26.0485 25.2369 25.6805 24.5169 24.9445 24.0209C24.2245 23.5249 23.1765 23.2769 21.8005 23.2769H21.1525V21.0209H21.8005C24.4085 21.0529 25.7125 20.1649 25.7125 18.3569C25.7125 17.5729 25.4725 16.9569 24.9925 16.5089C24.5125 16.0609 23.8565 15.8369 23.0245 15.8369C22.1925 15.8369 21.4965 16.0929 20.9365 16.6049C20.3765 17.1009 20.0405 17.8289 19.9285 18.7889H17.2405C17.3525 17.1249 17.9125 15.8369 18.9205 14.9249C19.9285 13.9969 21.3205 13.5329 23.0965 13.5329Z" fill="white"/>
<defs>
<clipPath id="clip0">
<rect width="86.5704" height="86.5704" fill="white" transform="translate(81.6111 84.2363)"/>
</clipPath>
</defs>
</svg>
