<svg width="66" height="64" viewBox="0 0 66 64" fill="none" xmlns="http://www.w3.org/2000/svg">
<rect x="0.639648" y="56.793" width="55.9613" height="44.0336" transform="rotate(-90 0.639648 56.793)" fill="#FFE39C"/>
<g clip-path="url(#clip0)">
<path d="M18.5452 49.6777H21.8722V53.0048H18.5452V49.6777Z" fill="black"/>
<path d="M30.728 21.8626L24.618 15.8926L18.5081 21.8626V30.1589H30.728V21.8626ZM27.4009 26.8319H21.8351V23.2636L24.618 20.5444L27.4009 23.2636V26.8319Z" fill="black"/>
<path d="M62.4313 25.9166C59.9378 23.423 55.8804 23.4235 53.3868 25.9166L53.3309 25.9725V7.03223H9.78369V63.8135H53.3309V44.0614L62.4313 34.9611C64.9248 32.4675 64.9248 28.4101 62.4313 25.9166ZM60.0786 32.6083L43.0093 49.678H38.6565L38.66 45.3485L55.7396 28.2693C56.9356 27.0728 58.8825 27.0732 60.0786 28.2693C61.2751 29.4654 61.2751 31.4122 60.0786 32.6083ZM13.1107 60.4865V10.3593H50.0039V29.2995L43.8207 35.4826H18.5449V38.8097H40.4937L36.7231 42.5803H18.5449V45.9073H35.3325L35.3295 49.678H30.7067V53.005H44.3869L50.0035 47.3885V60.4865H13.1107Z" fill="black"/>
</g>
<defs>
<clipPath id="clip0">
<rect width="56.7813" height="56.7813" fill="white" transform="translate(8.6748 7.03223)"/>
</clipPath>
</defs>
</svg>
