<svg width="227" height="243" viewBox="0 0 227 243" fill="none" xmlns="http://www.w3.org/2000/svg">
<rect x="23.397" y="23.5049" width="203" height="203" stroke="#DE5600"/>
<path d="M124.897 242.584L140.475 227.006L109.319 227.006L124.897 242.584Z" fill="#DE5600"/>
<path d="M104.057 164.819H89.9388C87.6216 164.819 85.7361 162.934 85.7361 160.616V89.0253C85.7361 86.708 87.6216 84.8225 89.9388 84.8225H130.612C130.744 84.8225 130.873 84.8346 131.001 84.8519V93.3037C131.001 97.1157 134.102 100.217 137.914 100.217H146.366C146.383 100.345 146.395 100.474 146.395 100.606V123.683C146.395 124.432 147.002 125.038 147.75 125.038C148.499 125.038 149.105 124.432 149.105 123.683V100.606C149.105 99.1192 148.526 97.7215 147.475 96.6702L134.548 83.7424C133.496 82.6913 132.099 82.1123 130.612 82.1123H89.9388C86.1269 82.1123 83.0259 85.2135 83.0259 89.0253V160.616C83.0259 164.428 86.1271 167.529 89.9388 167.529H104.057C104.806 167.529 105.412 166.922 105.412 166.174C105.412 165.425 104.806 164.819 104.057 164.819ZM144.479 97.5065H137.914C135.597 97.5065 133.711 95.621 133.711 93.3037V86.7393L144.479 97.5065Z" fill="#DE5600"/>
<path d="M166.388 149.359L155.889 131.637C155.124 130.344 153.458 129.917 152.166 130.683L149.612 132.196C147.629 133.371 146.792 135.747 147.472 137.853C146.612 138.165 145.668 138.16 144.8 137.824C142.783 137.19 141.25 135.914 138.719 136.554C134.42 137.648 134.55 137.594 134.161 137.727C131.644 136.294 130.131 135.867 127.459 136.901L125.077 137.822C123.974 138.248 122.759 138.147 121.74 137.543L121.09 137.16C121.407 135.259 120.564 133.254 118.78 132.197C118.78 132.197 118.78 132.197 118.78 132.196L116.226 130.683C114.937 129.92 113.266 130.347 112.503 131.637L102.003 149.359C101.238 150.651 101.664 152.316 102.956 153.082L105.51 154.595C106.283 155.053 107.132 155.27 107.971 155.27C108.906 155.27 109.829 154.999 110.618 154.489L111.15 154.803L110.026 156.368C108.687 158.233 109.113 160.827 110.978 162.166C111.841 162.785 112.925 163.068 114.046 162.892C114.224 163.932 114.793 164.905 115.715 165.567C116.582 166.189 117.661 166.472 118.783 166.295C118.962 167.334 119.531 168.306 120.453 168.968C121.692 169.857 123.232 169.96 124.515 169.412C124.796 170.141 125.284 170.8 125.965 171.289C127.743 172.565 130.193 172.232 131.574 170.579L134.56 172.348C136.535 173.518 139.083 172.868 140.254 170.891C140.553 170.385 140.739 169.834 140.807 169.268L140.814 169.272C142.786 170.44 145.339 169.786 146.507 167.815C146.846 167.244 147.031 166.625 147.076 166.004C148.814 166.441 150.708 165.711 151.667 164.092C151.982 163.561 152.165 162.987 152.225 162.41C154.087 163.141 156.264 162.434 157.316 160.659C157.882 159.704 158.042 158.586 157.767 157.51C157.61 156.895 157.32 156.337 156.923 155.865L158.568 154.903C159.961 155.475 161.55 155.383 162.881 154.595L165.435 153.082C166.727 152.317 167.154 150.651 166.388 149.359ZM106.773 152.463L104.219 150.95C104.106 150.882 104.068 150.735 104.135 150.622L114.635 132.899C114.703 132.785 114.85 132.748 114.963 132.815L117.516 134.328C118.651 135 119.006 136.456 118.346 137.57L110.015 151.633C109.35 152.756 107.896 153.128 106.773 152.463ZM112.423 160.153C111.671 159.612 111.499 158.566 112.039 157.813L113.691 155.512C114.217 154.779 115.266 154.579 116.031 155.128C116.782 155.667 116.954 156.717 116.415 157.468L114.763 159.768C114.224 160.52 113.174 160.692 112.423 160.153ZM117.161 163.554C116.41 163.015 116.238 161.965 116.777 161.214L118.428 158.913C118.428 158.913 118.428 158.913 118.428 158.913C118.428 158.913 118.428 158.913 118.428 158.913L120.251 156.374C120.512 156.01 120.9 155.77 121.341 155.698C121.433 155.682 121.525 155.675 121.616 155.675C121.964 155.675 122.303 155.783 122.591 155.99C122.955 156.251 123.195 156.638 123.267 157.08C123.34 157.522 123.236 157.966 122.975 158.33L119.5 163.17C118.96 163.922 117.914 164.095 117.161 163.554ZM121.898 166.955C121.147 166.416 120.975 165.367 121.513 164.616C121.513 164.616 121.514 164.615 121.514 164.615L124.988 159.775C125.527 159.024 126.577 158.852 127.328 159.391C128.079 159.93 128.251 160.98 127.712 161.731L126.169 163.881C126.169 163.881 126.169 163.881 126.168 163.881L124.238 166.571C123.699 167.322 122.649 167.494 121.898 166.955ZM127.411 169.276C126.66 168.737 126.487 167.688 127.025 166.937L128.182 165.327C128.721 164.575 129.771 164.404 130.521 164.942C131.272 165.481 131.445 166.531 130.906 167.282L129.75 168.891C129.211 169.643 128.161 169.815 127.411 169.276ZM155.185 159.396C154.713 160.192 153.683 160.456 152.887 159.984C151.539 159.186 142.845 154.035 141.918 153.486C141.329 153.137 140.569 153.332 140.22 153.92C139.872 154.509 140.066 155.269 140.655 155.618L148.947 160.531L148.947 160.531C149.743 161.003 150.009 162.03 149.536 162.829C149.064 163.625 148.033 163.889 147.237 163.418C144.17 161.601 141.68 160.125 138.94 158.502C138.351 158.154 137.592 158.348 137.243 158.937C136.894 159.525 137.088 160.286 137.677 160.634L143.787 164.254L143.788 164.255C144.585 164.728 144.848 165.755 144.376 166.552C143.904 167.349 142.873 167.612 142.077 167.141L138.798 165.198C138.798 165.198 138.797 165.198 138.797 165.198C138.797 165.197 138.796 165.197 138.796 165.197L136.403 163.779C135.814 163.43 135.054 163.625 134.705 164.214C134.356 164.802 134.551 165.563 135.14 165.911L137.533 167.329C137.533 167.329 137.534 167.33 137.534 167.33C138.33 167.801 138.596 168.829 138.122 169.628C137.651 170.424 136.62 170.688 135.824 170.216L133.032 168.562C134.229 166.715 133.773 164.227 131.967 162.93C131.436 162.549 130.845 162.312 130.241 162.21C130.882 160.496 130.329 158.496 128.773 157.378C127.852 156.717 126.749 156.488 125.708 156.651C125.523 155.568 124.93 154.619 124.036 153.978C122.355 152.771 120.071 153.003 118.66 154.431C118.373 153.927 117.977 153.475 117.476 153.116C116.079 152.113 114.266 152.104 112.883 152.948L112.315 152.613L120.108 139.458L120.479 139.677C122.118 140.648 124.117 140.85 125.971 140.133L128.352 139.213C129.715 138.686 130.467 138.651 131.815 139.288C130.933 140.279 130.41 141.58 130.41 142.982V148.476C130.41 149.936 131.596 151.124 133.054 151.125H133.058C134.52 151.125 135.896 150.555 136.93 149.521C137.534 148.919 137.979 148.2 138.246 147.415C139.845 148.363 153.064 156.191 154.597 157.099C154.982 157.327 155.256 157.692 155.367 158.126C155.478 158.559 155.413 159.011 155.185 159.396ZM164.172 150.95L161.618 152.463C160.496 153.127 159.042 152.755 158.377 151.633L154.472 145.042C154.123 144.453 153.362 144.258 152.774 144.607C152.185 144.956 151.991 145.716 152.34 146.305L156.245 152.896C156.318 153.02 156.398 153.138 156.48 153.253L155.395 153.888C155.175 154.017 154.964 154.161 154.762 154.316L137.928 144.347C137.103 143.859 136.058 144.454 136.058 145.413C136.045 145.487 136.186 146.761 135.178 147.768C134.612 148.334 133.859 148.646 133.058 148.646C133.057 148.646 133.056 148.646 133.056 148.646C132.963 148.646 132.888 148.57 132.888 148.476V142.982C132.888 141.546 133.875 140.336 135.21 139.997L139.326 138.956C140.819 138.578 141.664 139.376 143.9 140.133C145.452 140.733 147.14 140.696 148.638 140.056L149.386 141.319C149.735 141.908 150.495 142.102 151.083 141.753C151.672 141.405 151.867 140.645 151.518 140.056L150.045 137.569C149.378 136.444 149.75 134.995 150.875 134.328L153.428 132.815C153.54 132.749 153.687 132.783 153.757 132.899L164.256 150.621C164.324 150.736 164.286 150.882 164.172 150.95Z" fill="#DE5600"/>
<path d="M123.202 121.149H106.918C105.703 121.149 104.715 120.16 104.715 118.946V107.354C104.715 106.931 105.058 106.588 105.481 106.588C105.904 106.588 106.247 106.931 106.247 107.354V118.946C106.247 119.315 106.548 119.616 106.918 119.616H123.202C123.572 119.616 123.872 119.315 123.872 118.946V107.354C123.872 106.931 124.215 106.588 124.639 106.588C125.062 106.588 125.405 106.931 125.405 107.354V118.946C125.405 120.16 124.417 121.149 123.202 121.149Z" fill="#DE5600"/>
<path fill-rule="evenodd" clip-rule="evenodd" d="M123.201 121.472H106.917C105.523 121.472 104.389 120.338 104.389 118.943V107.352C104.389 106.749 104.877 106.261 105.48 106.261C106.083 106.261 106.572 106.749 106.572 107.352V118.943C106.572 119.134 106.727 119.289 106.917 119.289H123.201C123.391 119.289 123.547 119.134 123.547 118.943V107.352C123.547 106.749 124.035 106.261 124.638 106.261C125.241 106.261 125.729 106.749 125.729 107.352V118.943C125.729 120.338 124.595 121.472 123.201 121.472ZM106.917 121.147H123.201C124.416 121.147 125.404 120.158 125.404 118.943V107.352C125.404 106.929 125.061 106.586 124.638 106.586C124.215 106.586 123.872 106.929 123.872 107.352V118.943C123.872 119.313 123.571 119.614 123.201 119.614H106.917C106.547 119.614 106.247 119.313 106.247 118.943V107.352C106.247 106.929 105.903 106.586 105.48 106.586C105.057 106.586 104.714 106.929 104.714 107.352V118.943C104.714 120.158 105.702 121.147 106.917 121.147Z" fill="#DE5600"/>
<path d="M126.555 110.036C126.359 110.036 126.163 109.961 126.013 109.812L116.483 100.281C115.698 99.497 114.422 99.497 113.638 100.281L104.107 109.812C103.808 110.111 103.323 110.111 103.024 109.812C102.724 109.512 102.724 109.027 103.024 108.728L112.554 99.1975C113.936 97.8157 116.185 97.8157 117.566 99.1975L127.097 108.728C127.396 109.027 127.396 109.512 127.097 109.812C126.947 109.961 126.751 110.036 126.555 110.036Z" fill="#DE5600"/>
<path fill-rule="evenodd" clip-rule="evenodd" d="M117.565 99.1963L127.096 108.727C127.395 109.026 127.395 109.511 127.096 109.81C126.946 109.96 126.75 110.035 126.554 110.035C126.358 110.035 126.162 109.96 126.012 109.81L116.482 100.28C115.697 99.4958 114.421 99.4958 113.637 100.28L104.107 109.81C103.807 110.11 103.322 110.11 103.023 109.81C102.724 109.511 102.724 109.026 103.023 108.727L112.553 99.1963C113.935 97.8145 116.184 97.8145 117.565 99.1963ZM102.793 108.497L112.323 98.9665C113.832 97.4578 116.286 97.4578 117.795 98.9665L127.326 108.497C127.752 108.923 127.752 109.614 127.326 110.04C127.113 110.253 126.833 110.36 126.554 110.36C126.275 110.36 125.995 110.253 125.782 110.04L116.252 100.51L116.252 100.51C115.595 99.8525 114.524 99.8525 113.867 100.51L104.336 110.04C104.336 110.04 104.336 110.04 104.336 110.04C103.91 110.467 103.219 110.467 102.793 110.04H102.793C102.367 109.614 102.367 108.923 102.793 108.497Z" fill="#DE5600"/>
<path d="M118.125 121.149H111.994C111.571 121.149 111.228 120.805 111.228 120.382V113.581C111.228 112.261 112.302 111.187 113.623 111.187H116.496C117.817 111.187 118.891 112.261 118.891 113.581V120.382C118.891 120.805 118.548 121.149 118.125 121.149ZM112.761 119.616H117.359V113.581C117.359 113.106 116.972 112.719 116.496 112.719H113.623C113.147 112.719 112.761 113.106 112.761 113.581V119.616Z" fill="#DE5600"/>
<path fill-rule="evenodd" clip-rule="evenodd" d="M118.125 121.472H111.995C111.392 121.472 110.903 120.984 110.903 120.381V113.58C110.903 112.08 112.123 110.86 113.623 110.86H116.497C117.997 110.86 119.216 112.08 119.216 113.58V120.381C119.216 120.984 118.728 121.472 118.125 121.472ZM117.359 113.58C117.359 113.105 116.972 112.718 116.497 112.718H113.623C113.148 112.718 112.761 113.105 112.761 113.58V119.615H117.359V113.58ZM117.034 119.29V113.58C117.034 113.284 116.793 113.043 116.497 113.043H113.623C113.327 113.043 113.086 113.284 113.086 113.58V119.29H117.034ZM111.995 121.147H118.125C118.548 121.147 118.891 120.804 118.891 120.381V113.58C118.891 112.26 117.817 111.185 116.497 111.185H113.623C112.303 111.185 111.228 112.26 111.228 113.58V120.381C111.228 120.804 111.571 121.147 111.995 121.147Z" fill="#DE5600"/>
<circle cx="22.8969" cy="23.0048" r="22.5136" fill="#DE5600"/>
<path d="M17.2398 28.8689C19.8318 27.0929 21.9038 25.3569 23.4558 23.6609C25.0238 21.9489 25.8078 20.3649 25.8078 18.9089C25.8078 18.0449 25.5918 17.3569 25.1598 16.8449C24.7438 16.3329 24.0638 16.0769 23.1198 16.0769C22.1438 16.0769 21.4078 16.3969 20.9118 17.0369C20.4158 17.6609 20.1358 18.5569 20.0718 19.7249H17.4078C17.5198 17.7889 18.1118 16.3089 19.1838 15.2849C20.2718 14.2609 21.6558 13.7489 23.3358 13.7489C24.9838 13.7489 26.2718 14.1889 27.1998 15.0689C28.1438 15.9329 28.6158 17.1329 28.6158 18.6689C28.6158 19.9009 28.2318 21.1489 27.4638 22.4129C26.7118 23.6769 25.7518 24.8449 24.5838 25.9169C23.4158 26.9729 22.2078 27.8849 20.9598 28.6529H28.9998V30.8849H17.2398V28.8689Z" fill="white"/>
</svg>
