<svg width="90" height="79" viewBox="0 0 90 79" fill="none" xmlns="http://www.w3.org/2000/svg">
<path fill-rule="evenodd" clip-rule="evenodd" d="M78.1085 28.8082C78.4723 29.1721 78.949 29.354 79.4259 29.354C79.9028 29.354 80.3796 29.1721 80.7433 28.8082C81.471 28.0806 81.471 26.901 80.7433 26.1733L57.5713 3.00129C54.2116 -0.358502 48.7447 -0.358502 45.3849 3.00129L22.2129 26.1734C21.4852 26.901 21.4852 28.0807 22.2129 28.8083C22.9405 29.536 24.1202 29.536 24.8478 28.8083L26.3243 27.3318V62.753C26.3243 66.7782 28.7273 70.0529 31.6809 70.0529H71.2737C74.2274 70.0529 76.6304 66.7781 76.6304 62.753V27.33L78.1085 28.8082ZM72.9706 23.6704L54.9364 5.6363C53.0295 3.72933 49.9268 3.72933 48.0198 5.6363L29.9843 23.6718C30.0276 23.8865 30.0507 24.1125 30.0507 24.3459V62.753C30.0507 63.9781 30.782 64.9747 31.6809 64.9747H71.2737C72.1727 64.9747 72.904 63.9781 72.904 62.753V24.3459C72.904 24.112 72.9272 23.8855 72.9706 23.6704Z" fill="#DE5600"/>
<path fill-rule="evenodd" clip-rule="evenodd" d="M78.3384 28.5784C78.6387 28.8789 79.0317 29.029 79.4259 29.029C79.8201 29.029 80.2132 28.8789 80.5134 28.5784C81.1141 27.9778 81.1143 27.0039 80.5135 26.4031L57.3415 3.23109C54.1087 -0.00176889 48.8476 -0.00177458 45.6147 3.2311L22.4427 26.4032C21.8419 27.0038 21.8419 27.9778 22.4427 28.5785C23.0433 29.1792 24.0173 29.1792 24.618 28.5785L26.6493 26.5472V62.753C26.6493 64.7035 27.232 66.4595 28.157 67.7201C29.0823 68.9811 30.3328 69.7279 31.6809 69.7279H71.2737C72.6219 69.7279 73.8723 68.9811 74.7976 67.7201C75.7227 66.4594 76.3054 64.7034 76.3054 62.753V26.5454L78.3384 28.5784ZM80.7433 28.8082C81.471 28.0806 81.471 26.901 80.7433 26.1733L57.5713 3.00129C54.2116 -0.358502 48.7447 -0.358502 45.3849 3.00129L22.2129 26.1734C21.4852 26.901 21.4852 28.0807 22.2129 28.8083C22.9405 29.536 24.1202 29.536 24.8478 28.8083L26.3243 27.3318V62.753C26.3243 66.7782 28.7273 70.0529 31.6809 70.0529H71.2737C74.2274 70.0529 76.6304 66.7781 76.6304 62.753V27.33L78.1085 28.8082C78.4723 29.1721 78.949 29.354 79.4259 29.354C79.9028 29.354 80.3796 29.1721 80.7433 28.8082ZM73.3237 23.5638L73.2892 23.7347C73.2501 23.9285 73.229 24.1334 73.229 24.3459V62.753C73.229 63.4276 73.0281 64.052 72.688 64.5155C72.3481 64.9787 71.8518 65.2997 71.2737 65.2997H31.6809C31.1028 65.2997 30.6065 64.9787 30.2667 64.5155C29.9266 64.052 29.7257 63.4276 29.7257 62.753V24.3459C29.7257 24.1339 29.7047 23.9294 29.6657 23.736L29.6313 23.5652L47.79 5.40649C49.8239 3.3726 53.1324 3.37259 55.1662 5.40649L73.3237 23.5638ZM29.9843 23.6718L48.0198 5.6363C49.9268 3.72933 53.0295 3.72933 54.9364 5.6363L72.9706 23.6704C72.9272 23.8855 72.904 24.112 72.904 24.3459V62.753C72.904 63.9781 72.1727 64.9747 71.2737 64.9747H31.6809C30.782 64.9747 30.0507 63.9781 30.0507 62.753V24.3459C30.0507 24.1125 30.0276 23.8865 29.9843 23.6718Z" fill="#DE5600"/>
<path d="M47.8313 54.2271C41.5591 50.8733 28.8125 49.7766 23.2233 49.6475V68.6663L51.4797 77.5159L86.7228 65.3283L87.1885 58.5747L83.6953 55.9354L67.6263 61.7574L66.0737 54.6933C62.6064 55.9354 54.1036 57.581 47.8313 54.2271Z" fill="#FFF4D9"/>
<path fill-rule="evenodd" clip-rule="evenodd" d="M85.9782 55.0629C85.0005 54.598 83.3621 54.4652 82.5691 54.4584V54.4594C81.9527 54.5116 81.3476 54.6565 80.7742 54.889L69.7219 59.5833C69.7541 59.3756 69.7752 59.1661 69.785 58.956C69.785 55.6611 67.1139 52.9901 63.819 52.9901H50.5968C49.2594 52.9877 47.9405 52.6769 46.7428 52.0816C42.9643 50.1988 38.9182 48.9289 34.756 48.3127C33.9967 48.2168 33.4278 48.1448 33.0815 48.1007C32.5334 48.0431 31.9836 47.9967 31.4325 47.9617V47.9586C30.3468 47.903 28.9064 47.8599 28.0234 47.8455V47.8764H24.6143C24.6143 46.9351 23.8511 46.1719 22.9098 46.1719H9.27337C8.33203 46.1719 7.56882 46.9351 7.56882 47.8764H0.75061V51.2855H7.56882V68.3311H0.75061V71.7402H7.56882C7.56882 72.6815 8.33203 73.4447 9.27337 73.4447H22.9098C23.8511 73.4447 24.6143 72.6815 24.6143 71.7402V71.0907L37.3405 76.3748C44.2787 79.2059 52.034 79.2911 59.0327 76.6135L85.3646 66.5754C86.924 65.9824 88.1788 64.786 88.8453 63.2566C89.5363 61.7055 89.5725 59.941 88.9458 58.3628C88.3885 56.9521 87.3325 55.7954 85.9782 55.1123V55.0629ZM10.9779 70.0356H21.2052V49.581H10.9779V70.0356ZM84.1492 63.3896C84.8568 63.1183 85.4255 62.5741 85.7276 61.8793C86.043 61.1611 86.0571 60.3463 85.7668 59.6174C85.492 58.9017 84.9382 58.3285 84.2328 58.0287C83.5539 57.739 82.786 57.739 82.1072 58.0287L67.8554 64.0799C66.6096 64.607 65.2739 64.8894 63.9213 64.9117C63.9032 64.9117 63.886 64.9143 63.8689 64.9169C63.8523 64.9195 63.8359 64.9219 63.819 64.9219H63.7134H43.3644V61.5128H63.7134C63.8592 61.5128 64.0022 61.4938 64.1451 61.4748C64.2244 61.4642 64.3036 61.4537 64.3832 61.4464C65.536 61.1785 66.3541 60.1543 66.361 58.9709C66.3693 57.5587 65.231 56.4075 63.819 56.3992H50.5968C48.7303 56.3968 46.8899 55.9628 45.219 55.131C40.1611 52.6083 34.5875 51.2921 28.9354 51.2855H24.6143V67.397L38.6377 73.2214C44.7724 75.7246 51.6298 75.7989 57.8173 73.4294L84.1492 63.3896Z" fill="#DE5600"/>
<path d="M17.7968 63.2188H14.3877V66.6279H17.7968V63.2188Z" fill="#DE5600"/>
<path d="M51.4788 20.6348C44.2908 20.6426 38.4659 26.4676 38.4579 33.6557C38.4579 40.847 44.2875 46.6766 51.4788 46.6766C58.6701 46.6766 64.4997 40.847 64.4997 33.6557C64.4997 26.4646 58.6701 20.6348 51.4788 20.6348ZM51.4788 44.0724C45.7258 44.0724 41.0621 39.4086 41.0621 33.6557C41.0621 27.9027 45.7258 23.2389 51.4788 23.2389C57.2292 23.2455 61.889 27.9053 61.8955 33.6557C61.8955 39.4088 57.2318 44.0724 51.4788 44.0724Z" fill="#DE5600"/>
<path fill-rule="evenodd" clip-rule="evenodd" d="M62.0709 33.6555V33.6557C62.0709 39.5057 57.3286 44.2478 51.4788 44.2478C45.629 44.2478 40.8867 39.5055 40.8867 33.6557C40.8867 27.8058 45.629 23.0636 51.4788 23.0636H51.479C57.3261 23.0702 62.0643 27.8084 62.0709 33.6555ZM38.6333 33.6558C38.6412 26.5645 44.3877 20.8179 51.4789 20.8102C58.5733 20.8102 64.3243 26.5614 64.3243 33.6557C64.3243 40.7501 58.5732 46.5012 51.4788 46.5012C44.3844 46.5012 38.6333 40.7501 38.6333 33.6558ZM51.4788 20.6348C44.2908 20.6426 38.4659 26.4676 38.4579 33.6557C38.4579 40.847 44.2875 46.6766 51.4788 46.6766C58.6701 46.6766 64.4997 40.847 64.4997 33.6557C64.4997 26.4646 58.6701 20.6348 51.4788 20.6348ZM41.0621 33.6557C41.0621 39.4086 45.7258 44.0724 51.4788 44.0724C57.2318 44.0724 61.8955 39.4088 61.8955 33.6557C61.889 27.9053 57.2292 23.2455 51.4788 23.2389C45.7258 23.2389 41.0621 27.9027 41.0621 33.6557Z" fill="#C4C4C4"/>
<path d="M55.6 29.3056H52.4236C52.7911 29.5156 53.0741 29.7694 53.2724 30.0669C53.4707 30.3586 53.602 30.6882 53.6662 31.0557H55.6V32.3946H53.6487C53.5262 33.0013 53.2374 33.5321 52.7824 33.9871C52.3332 34.4422 51.7381 34.7776 50.9973 34.9935C51.2773 35.1393 51.5135 35.3551 51.7061 35.641L55.2413 40.5325H53.5787C53.252 40.5325 53.007 40.4013 52.8436 40.1388L49.7459 35.781C49.6468 35.6352 49.5388 35.5331 49.4222 35.4747C49.3055 35.4106 49.1276 35.3785 48.8884 35.3785H47.3746V34.0922H49.0459C49.8276 34.0922 50.4518 33.9376 50.9185 33.6284C51.391 33.3134 51.7031 32.9021 51.8548 32.3946H47.3571V31.0557H51.8986C51.7761 30.5132 51.4815 30.0961 51.0148 29.8044C50.5539 29.5069 49.918 29.3581 49.1072 29.3581H47.3746V27.9668H55.6V29.3056Z" fill="#DE5600"/>
</svg>
