<svg width="105" height="105" viewBox="0 0 105 105" fill="none" xmlns="http://www.w3.org/2000/svg">
<path d="M92.9497 91.634C92.9497 91.6327 92.9497 91.6327 92.9497 91.634V44.1447C92.9497 43.7898 92.8033 43.4587 92.5592 43.216L92.5632 43.2121L79.7582 30.4071V23.0383C79.7582 22.6874 79.6197 22.3524 79.3717 22.1057L68.8186 11.5525C68.5719 11.3045 68.2368 11.166 67.8859 11.166H25.6732C24.9437 11.166 24.3541 11.7557 24.3541 12.4852V30.4071L11.5491 43.2121L11.5531 43.216C11.309 43.4587 11.1626 43.7898 11.1626 44.1447V91.6327V91.634C11.1626 91.7712 11.1837 91.9097 11.2286 92.0456C11.4066 92.5864 11.9106 92.9531 12.4817 92.9531H91.6306C92.2018 92.9531 92.7057 92.5864 92.8838 92.0456C92.9286 91.9097 92.9497 91.7712 92.9497 91.634ZM69.2051 15.6696L75.2547 21.7192H69.2051V15.6696ZM90.3114 46.7197V89.03L61.1992 67.6809L90.3114 46.7197ZM89.6017 43.9811L79.7582 51.0676V34.1376L89.6017 43.9811ZM66.5668 13.8043V23.0383C66.5668 23.7678 67.1564 24.3575 67.8859 24.3575H77.1199V52.9671L58.9619 66.0412L52.8371 61.5495C52.3701 61.2092 51.7422 61.2092 51.2752 61.5495L45.1504 66.0412L26.9924 52.9671V13.8043H66.5668ZM42.9131 67.6809L13.8009 89.03V46.7197L42.9131 67.6809ZM24.3541 51.0676L14.5106 43.9811L24.3541 34.1376V51.0676ZM16.5117 90.3148L52.0562 64.2485L87.6006 90.3148H16.5117Z" fill="#DE5600"/>
<path d="M60.3293 52.4224H43.7828C42.5485 52.4224 41.5442 51.4181 41.5442 50.1837V38.4056C41.5442 37.9756 41.8928 37.627 42.3228 37.627C42.7529 37.627 43.1015 37.9756 43.1015 38.4056V50.1837C43.1015 50.5594 43.4071 50.8651 43.7828 50.8651H60.3293C60.705 50.8651 61.0106 50.5594 61.0106 50.1837V38.4056C61.0106 37.9756 61.3592 37.627 61.7892 37.627C62.2193 37.627 62.5679 37.9756 62.5679 38.4056V50.1837C62.5679 51.4181 61.5637 52.4224 60.3293 52.4224Z" fill="#DE5600"/>
<path fill-rule="evenodd" clip-rule="evenodd" d="M60.3294 52.7481H43.783C42.3691 52.7481 41.2194 51.5984 41.2194 50.1845V38.4064C41.2194 37.7969 41.7134 37.3027 42.323 37.3027C42.9326 37.3027 43.4267 37.7969 43.4267 38.4064V50.1845C43.4267 50.3807 43.5868 50.5408 43.783 50.5408H60.3294C60.5256 50.5408 60.6857 50.3807 60.6857 50.1845V38.4064C60.6857 37.7969 61.1798 37.3027 61.7894 37.3027C62.399 37.3027 62.893 37.7969 62.893 38.4064V50.1845C62.893 51.5984 61.7433 52.7481 60.3294 52.7481ZM43.783 52.4231H60.3294C61.5638 52.4231 62.568 51.4189 62.568 50.1845V38.4064C62.568 37.9764 62.2195 37.6277 61.7894 37.6277C61.3593 37.6277 61.0107 37.9764 61.0107 38.4064V50.1845C61.0107 50.5602 60.7051 50.8658 60.3294 50.8658H43.783C43.4073 50.8658 43.1017 50.5602 43.1017 50.1845V38.4064C43.1017 37.9764 42.7531 37.6277 42.323 37.6277C41.893 37.6277 41.5444 37.9764 41.5444 38.4064V50.1845C41.5444 51.4189 42.5486 52.4231 43.783 52.4231Z" fill="#DE5600"/>
<path d="M63.7358 41.1317C63.5365 41.1317 63.3373 41.0557 63.1853 40.9036L53.5013 31.2197C52.7044 30.4228 51.4077 30.4228 50.6107 31.2197L40.9268 40.9036C40.6227 41.2078 40.1297 41.2078 39.8256 40.9036C39.5215 40.5996 39.5215 40.1065 39.8256 39.8025L49.5096 30.1185C50.9137 28.7144 53.1984 28.7144 54.6024 30.1185L64.2864 39.8024C64.5905 40.1065 64.5905 40.5995 64.2864 40.9036C64.1344 41.0557 63.9351 41.1317 63.7358 41.1317Z" fill="#DE5600"/>
<path fill-rule="evenodd" clip-rule="evenodd" d="M53.5015 31.2195C52.7046 30.4226 51.4079 30.4226 50.6109 31.2195L40.927 40.9035C40.6229 41.2076 40.1299 41.2076 39.8258 40.9035C39.5217 40.5994 39.5217 40.1064 39.8258 39.8023L49.5097 30.1183C50.9138 28.7142 53.1986 28.7142 54.6026 30.1183L64.2866 39.8022C64.5907 40.1064 64.5907 40.5993 64.2866 40.9034C64.1346 41.0555 63.9353 41.1315 63.736 41.1315C63.5367 41.1315 63.3375 41.0555 63.1854 40.9034L53.5015 31.2195ZM62.9556 41.1332L53.2717 31.4493C52.6017 30.7793 51.5107 30.7793 50.8407 31.4493L41.1568 41.1332C41.1568 41.1333 41.1568 41.1332 41.1568 41.1332C40.7258 41.5643 40.027 41.5643 39.596 41.1333C39.1649 40.7023 39.1649 40.0035 39.596 39.5725L49.2799 29.8885C50.811 28.3575 53.3015 28.3575 54.8324 29.8885L64.5164 39.5724C64.9474 40.0035 64.9474 40.7022 64.5164 41.1332C64.3009 41.3487 64.0179 41.4565 63.736 41.4565C63.454 41.4565 63.171 41.3487 62.9556 41.1332Z" fill="#DE5600"/>
<path d="M55.1708 52.4233H48.9416C48.5115 52.4233 48.1629 52.0747 48.1629 51.6446V44.7341C48.1629 43.3924 49.2545 42.3008 50.5962 42.3008H53.5161C54.8579 42.3008 55.9494 43.3924 55.9494 44.7341V51.6446C55.9494 52.0747 55.6009 52.4233 55.1708 52.4233ZM49.7202 50.866H54.3921V44.7341C54.3921 44.2511 53.9992 43.8581 53.5161 43.8581H50.5962C50.1132 43.8581 49.7202 44.2511 49.7202 44.7341V50.866Z" fill="#DE5600"/>
<path fill-rule="evenodd" clip-rule="evenodd" d="M55.1706 52.7481H48.9414C48.3318 52.7481 47.8377 52.2539 47.8377 51.6444V44.7339C47.8377 43.2127 49.0748 41.9756 50.596 41.9756H53.516C55.0372 41.9756 56.2743 43.2127 56.2743 44.7339V51.6444C56.2743 52.2539 55.7802 52.7481 55.1706 52.7481ZM54.392 44.7339C54.392 44.2509 53.999 43.8579 53.516 43.8579H50.596C50.113 43.8579 49.72 44.2509 49.72 44.7339V50.8658H54.392V44.7339ZM54.067 50.5408V44.7339C54.067 44.4304 53.8195 44.1829 53.516 44.1829H50.596C50.2925 44.1829 50.045 44.4304 50.045 44.7339V50.5408H54.067ZM48.9414 52.4231H55.1706C55.6007 52.4231 55.9493 52.0745 55.9493 51.6444V44.7339C55.9493 43.3922 54.8577 42.3006 53.516 42.3006H50.596C49.2543 42.3006 48.1627 43.3922 48.1627 44.7339V51.6444C48.1627 52.0745 48.5113 52.4231 48.9414 52.4231Z" fill="#DE5600"/>
</svg>
