<svg width="88" height="87" viewBox="0 0 88 87" fill="none" xmlns="http://www.w3.org/2000/svg">
<g clip-path="url(#clip0)">
<path d="M69.0803 60.455C68.3796 60.455 67.8115 61.0231 67.8115 61.7238V72.6467C67.8115 76.2716 64.9824 79.1902 61.3642 79.3051C61.1356 79.2982 60.9102 79.28 60.6882 79.2522C60.6703 79.2499 60.6522 79.2478 60.6343 79.2453C60.5533 79.2345 60.473 79.2216 60.393 79.2083C60.3411 79.1993 60.289 79.1905 60.2373 79.1804C60.1945 79.1723 60.1521 79.1633 60.1098 79.1543C56.9471 78.4756 54.5688 75.6592 54.5688 72.297C54.5688 71.5962 54.0007 71.0282 53.3 71.0282H16.465V24.5364C16.465 23.8355 15.8969 23.2676 15.1962 23.2676C14.4955 23.2676 13.9274 23.8355 13.9274 24.5364V71.0285H2.05322C1.35254 71.0285 0.784424 71.5963 0.784424 72.2973C0.784424 77.5644 5.06932 81.8493 10.3364 81.8493H61.5827C61.6755 81.8493 61.7658 81.8387 61.853 81.8197C64.0861 81.6505 66.1609 80.684 67.7361 79.0691C69.4212 77.3414 70.3493 75.0608 70.3493 72.647V61.7241C70.3491 61.0231 69.7812 60.455 69.0803 60.455ZM10.3364 79.3116C6.90201 79.3116 4.03605 76.8303 3.43716 73.5661H52.1144C52.3831 75.5961 53.2944 77.4796 54.747 78.9672C54.8625 79.0855 54.9812 79.2 55.1017 79.3116H10.3364Z" fill="#DE5600"/>
<path d="M69.0804 5.19336H15.1963C14.4956 5.19336 13.9275 5.76148 13.9275 6.46216V19.4599C13.9275 20.1607 14.4956 20.7287 15.1963 20.7287C15.897 20.7287 16.4651 20.1607 16.4651 19.4599V7.73112H67.8116V56.6478C67.8116 57.3486 68.3797 57.9166 69.0804 57.9166C69.7811 57.9166 70.3492 57.3486 70.3492 56.6478V6.46233C70.3492 5.76148 69.7813 5.19336 69.0804 5.19336Z" fill="#DE5600"/>
<path d="M87.2322 18.9201C87.2295 18.9144 87.2278 18.9081 87.2251 18.9024L81.8956 7.75761C81.6848 7.31681 81.2396 7.03613 80.7509 7.03613C80.2623 7.03613 79.8171 7.31664 79.6062 7.75761L74.2767 18.9024C74.274 18.9081 74.2723 18.9144 74.2696 18.9201C74.192 19.0845 74.1472 19.2674 74.1472 19.4613V27.3249C74.1472 28.0257 74.7153 28.5937 75.416 28.5937C76.1167 28.5937 76.6848 28.0257 76.6848 27.3249V20.7301H84.8168V65.3851H76.6848V32.4002C76.6848 31.6994 76.1167 31.1314 75.416 31.1314C74.7153 31.1314 74.1472 31.6994 74.1472 32.4002V77.2034C74.1472 79.3224 75.8714 81.0465 77.9903 81.0465H83.5115C85.6306 81.0465 87.3546 79.3226 87.3546 77.2034V19.4612C87.3546 19.2672 87.31 19.0845 87.2322 18.9201ZM77.4347 18.1809L79.0633 14.7749H82.4382L84.067 18.1809H77.4347ZM83.5115 78.5088H77.9903C77.2707 78.5088 76.685 77.9232 76.685 77.2034V73.6951H84.817V77.2034C84.817 77.9232 84.2315 78.5088 83.5115 78.5088ZM84.817 71.1576H76.685V67.9227H84.817V71.1576Z" fill="#DE5600"/>
<path d="M51.7868 52.5568H32.4897C31.0501 52.5568 29.8789 51.3856 29.8789 49.946V36.2099C29.8789 35.7084 30.2855 35.3018 30.787 35.3018C31.2886 35.3018 31.6951 35.7084 31.6951 36.2099V49.946C31.6951 50.3842 32.0515 50.7406 32.4897 50.7406H51.7868C52.225 50.7406 52.5814 50.3842 52.5814 49.946V36.2099C52.5814 35.7084 52.9879 35.3018 53.4895 35.3018C53.9911 35.3018 54.3976 35.7084 54.3976 36.2099V49.946C54.3976 51.3856 53.2264 52.5568 51.7868 52.5568Z" fill="#DE5600"/>
<path fill-rule="evenodd" clip-rule="evenodd" d="M51.7867 52.8826H32.4896C30.8706 52.8826 29.5538 51.5659 29.5538 49.9468V36.2106C29.5538 35.5297 30.1059 34.9775 30.7869 34.9775C31.468 34.9775 32.02 35.5297 32.02 36.2106V49.9468C32.02 50.2055 32.231 50.4164 32.4896 50.4164H51.7867C52.0454 50.4164 52.2563 50.2055 52.2563 49.9468V36.2106C52.2563 35.5297 52.8084 34.9775 53.4894 34.9775C54.1705 34.9775 54.7225 35.5297 54.7225 36.2106V49.9468C54.7225 51.5658 53.4059 52.8826 51.7867 52.8826ZM32.4896 52.5576H51.7867C53.2264 52.5576 54.3975 51.3863 54.3975 49.9468V36.2106C54.3975 35.7091 53.991 35.3025 53.4894 35.3025C52.9879 35.3025 52.5813 35.7091 52.5813 36.2106V49.9468C52.5813 50.3849 52.2249 50.7414 51.7867 50.7414H32.4896C32.0515 50.7414 31.695 50.3849 31.695 49.9468V36.2106C31.695 35.7091 31.2885 35.3025 30.7869 35.3025C30.2854 35.3025 29.8788 35.7091 29.8788 36.2106V49.9468C29.8788 51.3864 31.0501 52.5576 32.4896 52.5576Z" fill="#DE5600"/>
<path d="M55.7599 39.3906C55.5274 39.3906 55.2951 39.3019 55.1178 39.1245L43.8239 27.8308C42.8945 26.9013 41.3822 26.9013 40.4528 27.8308L29.159 39.1246C28.8044 39.4793 28.2294 39.4793 27.8748 39.1246C27.5201 38.77 27.5201 38.195 27.8748 37.8404L39.1686 26.5465C40.8061 24.909 43.4706 24.909 45.1081 26.5465L56.4019 37.8403C56.7566 38.195 56.7566 38.7699 56.4019 39.1245C56.2247 39.3019 55.9923 39.3906 55.7599 39.3906Z" fill="#DE5600"/>
<path fill-rule="evenodd" clip-rule="evenodd" d="M45.1081 26.5463C43.4706 24.9088 40.806 24.9088 39.1685 26.5463L27.8747 37.8402C27.52 38.1948 27.52 38.7698 27.8747 39.1244C28.2293 39.4791 28.8043 39.4791 29.1589 39.1244L40.4527 27.8306C41.3822 26.9012 42.8944 26.9012 43.8238 27.8306L55.1177 39.1244C55.295 39.3017 55.5274 39.3904 55.7598 39.3904C55.9922 39.3904 56.2246 39.3017 56.4019 39.1244C56.7565 38.7697 56.7565 38.1948 56.4019 37.8401L45.1081 26.5463ZM56.6318 39.3541C56.3911 39.5949 56.0749 39.7154 55.7598 39.7154C55.4447 39.7154 55.1286 39.5949 54.8879 39.3541L43.594 28.0604L43.594 28.0604C42.7916 27.2579 41.4851 27.2579 40.6825 28.0604L29.3887 39.3542C29.3887 39.3542 29.3887 39.3542 29.3887 39.3542C28.9072 39.8358 28.1264 39.8358 27.6449 39.3542C27.1633 38.8727 27.1633 38.0919 27.6449 37.6104C27.6449 37.6104 27.6449 37.6104 27.6449 37.6104L38.9387 26.3165C40.7031 24.5521 43.5735 24.552 45.3379 26.3165L56.6317 37.6103C57.1132 38.0919 57.1133 38.8725 56.6318 39.3541Z" fill="#DE5600"/>
<path d="M45.7707 52.5592H38.5059C38.0043 52.5592 37.5978 52.1526 37.5978 51.6511V43.5917C37.5978 42.0269 38.8708 40.7539 40.4356 40.7539H43.841C45.4057 40.7539 46.6788 42.0269 46.6788 43.5917V51.6511C46.6788 52.1526 46.2722 52.5592 45.7707 52.5592ZM39.414 50.743H44.8626V43.5917C44.8626 43.0284 44.4043 42.5701 43.841 42.5701H40.4356C39.8723 42.5701 39.414 43.0284 39.414 43.5917V50.743Z" fill="#DE5600"/>
<path fill-rule="evenodd" clip-rule="evenodd" d="M45.771 52.884H38.5062C37.8251 52.884 37.2731 52.3319 37.2731 51.6509V43.5915C37.2731 41.8473 38.6916 40.4287 40.4359 40.4287H43.8413C45.5855 40.4287 47.0041 41.8473 47.0041 43.5915V51.6509C47.0041 52.3319 46.452 52.884 45.771 52.884ZM44.8629 43.5915C44.8629 43.0282 44.4046 42.5699 43.8413 42.5699H40.4359C39.8726 42.5699 39.4143 43.0282 39.4143 43.5915V50.7428H44.8629V43.5915ZM44.5379 50.4178V43.5915C44.5379 43.2077 44.2251 42.8949 43.8413 42.8949H40.4359C40.0521 42.8949 39.7393 43.2077 39.7393 43.5915V50.4178H44.5379ZM38.5062 52.559H45.771C46.2725 52.559 46.6791 52.1524 46.6791 51.6509V43.5915C46.6791 42.0268 45.406 40.7537 43.8413 40.7537H40.4359C38.8711 40.7537 37.5981 42.0268 37.5981 43.5915V51.6509C37.5981 52.1524 38.0046 52.559 38.5062 52.559Z" fill="#DE5600"/>
</g>
<defs>
<clipPath id="clip0">
<rect width="86.5704" height="86.5704" fill="white" transform="translate(0.784424 0.236328)"/>
</clipPath>
</defs>
</svg>
