<svg width="84" height="91" viewBox="0 0 84 91" fill="none" xmlns="http://www.w3.org/2000/svg">
<path d="M21.2305 82.8188H7.11218C4.79491 82.8188 2.90945 80.9336 2.90945 78.6163V7.02527C2.90945 4.70799 4.79491 2.82254 7.11218 2.82254H47.7857C47.917 2.82254 48.0464 2.8346 48.1743 2.85187V11.3037C48.1743 15.1157 51.2756 18.2167 55.0873 18.2167H63.539C63.5564 18.3448 63.5683 18.4742 63.5683 18.6055V41.6831C63.5683 42.4316 64.175 43.0383 64.9235 43.0383C65.672 43.0383 66.2787 42.4316 66.2787 41.6831V18.6057C66.2787 17.1192 65.6997 15.7215 64.6486 14.6702L51.7209 1.74244C50.6697 0.691309 49.2723 0.112305 47.7857 0.112305H7.11218C3.30026 0.112305 0.199219 3.21352 0.199219 7.02527V78.6163C0.199219 82.428 3.30044 85.5291 7.11218 85.5291H21.2305C21.979 85.5291 22.5857 84.9224 22.5857 84.1739C22.5857 83.4254 21.979 82.8188 21.2305 82.8188ZM61.6519 15.5065H55.0875C52.7702 15.5065 50.8848 13.621 50.8848 11.3037V4.7393L61.6519 15.5065Z" fill="#DE5600"/>
<path d="M83.5617 67.3586L73.0623 49.6365C72.2971 48.3444 70.6319 47.9173 69.3391 48.6831L66.7852 50.1962C64.8029 51.3705 63.965 53.747 64.6456 55.8531C63.7852 56.1648 62.8418 56.1599 61.9732 55.8241C59.9568 55.1897 58.4238 53.9135 55.892 54.5538C51.5931 55.6484 51.7237 55.5936 51.3348 55.7269C48.8176 54.2937 47.3045 53.8673 44.6324 54.901L42.2505 55.8218C41.1477 56.2479 39.9325 56.1469 38.9135 55.5431L38.2635 55.1599C38.5807 53.2594 37.7378 51.2537 35.9531 50.1965C35.9531 50.1965 35.9531 50.1965 35.953 50.1964L33.3993 48.6834C32.1101 47.9199 30.4399 48.3473 29.6762 49.6365L19.1765 67.3588C18.4113 68.6506 18.8371 70.3163 20.1296 71.0819L22.6833 72.5948C23.456 73.0526 24.3053 73.2703 25.1443 73.2703C26.0799 73.2703 27.0024 72.9992 27.7911 72.4885L28.3233 72.8026L27.1997 74.3677C25.8606 76.233 26.2861 78.8268 28.1517 80.166C29.0145 80.7853 30.0983 81.0681 31.2192 80.892C31.3971 81.9316 31.9666 82.9046 32.8889 83.567C33.7551 84.1888 34.8341 84.472 35.9569 84.2951C36.1353 85.3339 36.7045 86.3061 37.6263 86.9679C38.8651 87.8572 40.4054 87.96 41.6888 87.4118C41.9696 88.1413 42.4578 88.8 43.1387 89.289C44.9169 90.5652 47.3662 90.2323 48.7479 88.5789L51.7339 90.3478C53.7087 91.5181 56.2566 90.8677 57.4275 88.8907C57.7269 88.3853 57.9126 87.8344 57.9806 87.2683L57.9873 87.2724C59.9591 88.4402 62.5128 87.7864 63.6809 85.8151C64.0191 85.2441 64.2045 84.6247 64.2496 84.0039C65.9876 84.4409 67.8817 83.7109 68.8409 82.092C69.1556 81.561 69.3381 80.9873 69.3981 80.41C71.2608 81.1409 73.4379 80.4345 74.4899 78.659C75.0556 77.704 75.2157 76.5859 74.9405 75.5104C74.783 74.8951 74.4935 74.3366 74.096 73.8649L75.7419 72.9033C77.1342 73.4748 78.7231 73.3833 80.0548 72.5946L82.6081 71.0817C83.9006 70.3167 84.3275 68.6512 83.5617 67.3586ZM23.9464 70.4628L21.3928 68.9497C21.2792 68.8824 21.2416 68.7353 21.3087 68.6218L31.8084 50.8992C31.876 50.7852 32.0236 50.7482 32.1364 50.8153L34.6899 52.328C35.8246 53.0004 36.1797 54.4558 35.5196 55.5698L27.1882 69.6329C26.5232 70.7556 25.0691 71.1276 23.9464 70.4628ZM29.5969 78.1528C28.8444 77.6125 28.6723 76.5658 29.2129 75.813L30.8645 73.5123C31.3907 72.7794 32.4391 72.5788 33.2043 73.1282C33.9554 73.6673 34.1276 74.7168 33.5886 75.4678L31.9369 77.7684C31.3977 78.5198 30.3476 78.6916 29.5969 78.1528ZM34.3343 81.5539C33.5832 81.0146 33.411 79.9648 33.9501 79.2139L35.6017 76.9134C35.6017 76.9134 35.6017 76.9134 35.6017 76.9133C35.6017 76.9133 35.6017 76.9131 35.6019 76.9131L37.4246 74.3742C37.6859 74.0105 38.073 73.77 38.5149 73.6976C38.6067 73.6824 38.6986 73.675 38.79 73.675C39.1377 73.675 39.4762 73.7833 39.7644 73.9901C40.128 74.2513 40.3685 74.6383 40.4409 75.0802C40.5135 75.5223 40.4097 75.966 40.1484 76.3297L36.6739 81.1696C36.1339 81.9223 35.0871 82.0945 34.3343 81.5539ZM39.0716 84.9547C38.3209 84.4157 38.1485 83.3667 38.6866 82.6159C38.6868 82.6155 38.6871 82.6152 38.6873 82.6149L42.1618 77.7752C42.7006 77.0243 43.7509 76.8519 44.5016 77.3909C45.2526 77.93 45.4249 78.9796 44.8858 79.7307L43.3421 81.8811C43.3421 81.8811 43.3421 81.8811 43.3419 81.8813L41.4113 84.5705C40.8721 85.3216 39.8228 85.4942 39.0716 84.9547ZM44.584 87.2757C43.8335 86.7368 43.6609 85.6883 44.1987 84.9373L45.3551 83.3266C45.8941 82.5754 46.9442 82.4036 47.6949 82.9424C48.4458 83.4814 48.6182 84.5312 48.0791 85.2822L46.9237 86.8914C46.3847 87.6426 45.3347 87.815 44.584 87.2757ZM72.3582 77.396C71.8867 78.1918 70.8561 78.4557 70.0602 77.9843C68.7124 77.1859 60.0185 72.0353 59.0916 71.4861C58.5026 71.1373 57.7427 71.3316 57.3939 71.9204C57.0451 72.5092 57.2394 73.2693 57.8282 73.6181L66.1206 78.5308L66.1207 78.531C66.9168 79.0025 67.1824 80.0299 66.709 80.8292C66.2374 81.6253 65.2063 81.8887 64.4107 81.4177C61.3437 79.6007 58.8534 78.1253 56.1139 76.5023C55.5248 76.1535 54.765 76.3478 54.4163 76.9366C54.0675 77.5255 54.2618 78.2855 54.8506 78.6343L60.9605 82.2541L60.9619 82.2549C61.7585 82.7279 62.0214 83.7548 61.549 84.5524C61.0773 85.3485 60.0466 85.6123 59.2505 85.1408L55.9715 83.1983C55.9711 83.1981 55.9706 83.1979 55.9703 83.1976C55.97 83.1974 55.9697 83.1973 55.9693 83.1971L53.5764 81.7793C52.9874 81.4303 52.2275 81.6246 51.8787 82.2136C51.5299 82.8024 51.7242 83.5625 52.313 83.9113L54.7065 85.3293C54.7068 85.3295 54.7071 85.3298 54.7075 85.33C55.5036 85.8015 55.7691 86.8287 55.2958 87.628C54.8241 88.4241 53.7934 88.6878 52.9973 88.2163L50.2052 86.5624C51.4021 84.7155 50.9468 82.2266 49.1402 80.9299C48.6097 80.5492 48.0189 80.3121 47.4146 80.2103C48.0556 78.4965 47.5029 76.4956 45.9468 75.3785C45.0254 74.7168 43.9223 74.4882 42.8812 74.6515C42.696 73.5681 42.1036 72.6191 41.2097 71.9777C39.5287 70.7712 37.2441 71.0031 35.833 72.4306C35.5463 71.927 35.1504 71.4752 34.6496 71.1158C33.2527 70.1132 31.439 70.1038 30.0561 70.9483L29.4883 70.6131L37.2816 57.4583L37.6526 57.6771C39.2912 58.6478 41.2908 58.8501 43.144 58.1335L45.5259 57.2126C46.889 56.6859 47.6407 56.6515 48.9889 57.2877C48.1067 58.2787 47.5831 59.5799 47.5831 60.9823V66.4764C47.5831 67.9357 48.7694 69.1237 50.2276 69.1247H50.2312C51.6938 69.1247 53.0692 68.5553 54.1038 67.5213C54.707 66.9185 55.1521 66.1999 55.419 65.4155C57.019 66.3629 70.2377 74.1906 71.7702 75.0986C72.1557 75.327 72.4291 75.6917 72.5401 76.1257C72.6512 76.5592 72.5865 77.0105 72.3582 77.396ZM81.3456 68.9497L78.7917 70.4628C77.669 71.1274 76.215 70.7551 75.5504 69.6331L71.6453 63.0416C71.2964 62.4528 70.5359 62.2585 69.9476 62.6069C69.3588 62.9557 69.1643 63.7158 69.513 64.3046L73.418 70.8963C73.4916 71.0203 73.5713 71.1383 73.6539 71.2533L72.5683 71.8875C72.3488 72.0175 72.1377 72.1606 71.9359 72.3161L55.1016 62.347C54.2769 61.8589 53.2312 62.4539 53.2312 63.4131C53.2182 63.4871 53.3592 64.7608 52.3519 65.7679C51.7852 66.334 51.0321 66.6459 50.231 66.6459C50.2304 66.6459 50.2297 66.6459 50.229 66.6459C50.1364 66.6459 50.0611 66.5696 50.0611 66.4758V60.9816C50.0611 59.5464 51.0485 58.3355 52.3839 57.9974L56.4996 56.9558C57.9929 56.5784 58.8371 57.3759 61.0731 58.1326C62.6253 58.7331 64.3131 58.6961 65.8113 58.0563L66.5592 59.3188C66.9081 59.908 67.6682 60.1021 68.2568 59.7535C68.8457 59.4047 69.0401 58.6446 68.6915 58.0558L67.2184 55.5694C66.5519 54.4444 66.9232 52.9947 68.0481 52.3279L70.6017 50.8151C70.7133 50.7488 70.8609 50.7827 70.93 50.8992L81.4293 68.6215C81.4971 68.7358 81.4598 68.8821 81.3456 68.9497Z" fill="#DE5600"/>
<path d="M40.375 39.1487H24.091C22.8762 39.1487 21.8878 38.1604 21.8878 36.9456V25.3542C21.8878 24.931 22.2309 24.5879 22.6541 24.5879C23.0774 24.5879 23.4204 24.931 23.4204 25.3542V36.9456C23.4204 37.3153 23.7212 37.6161 24.091 37.6161H40.375C40.7448 37.6161 41.0456 37.3153 41.0456 36.9456V25.3542C41.0456 24.931 41.3886 24.5879 41.8119 24.5879C42.2351 24.5879 42.5782 24.931 42.5782 25.3542V36.9456C42.5782 38.1604 41.5899 39.1487 40.375 39.1487Z" fill="#DE5600"/>
<path fill-rule="evenodd" clip-rule="evenodd" d="M40.3744 39.4716H24.0903C22.696 39.4716 21.5621 38.3378 21.5621 36.9434V25.3521C21.5621 24.7494 22.0507 24.2607 22.6534 24.2607C23.2562 24.2607 23.7448 24.7494 23.7448 25.3521V36.9434C23.7448 37.1337 23.9 37.289 24.0903 37.289H40.3744C40.5646 37.289 40.7199 37.1337 40.7199 36.9434V25.3521C40.7199 24.7494 41.2084 24.2607 41.8112 24.2607C42.4139 24.2607 42.9025 24.7494 42.9025 25.3521V36.9434C42.9025 38.3377 41.7687 39.4716 40.3744 39.4716ZM24.0903 39.1466H40.3744C41.5892 39.1466 42.5775 38.1582 42.5775 36.9434V25.3521C42.5775 24.9289 42.2344 24.5857 41.8112 24.5857C41.3879 24.5857 41.0449 24.9289 41.0449 25.3521V36.9434C41.0449 37.3132 40.7441 37.614 40.3744 37.614H24.0903C23.7205 37.614 23.4198 37.3132 23.4198 36.9434V25.3521C23.4198 24.9289 23.0767 24.5857 22.6534 24.5857C22.2302 24.5857 21.8871 24.9289 21.8871 25.3521V36.9434C21.8871 38.1583 22.8755 39.1466 24.0903 39.1466Z" fill="#DE5600"/>
<path d="M43.7282 28.0361C43.5321 28.0361 43.336 27.9613 43.1864 27.8116L33.656 18.2813C32.8717 17.497 31.5955 17.497 30.8112 18.2813L21.2808 27.8117C20.9816 28.111 20.4964 28.111 20.1971 27.8117C19.8978 27.5124 19.8978 27.0272 20.1971 26.728L29.7275 17.1975C31.1094 15.8157 33.3579 15.8157 34.7397 17.1975L44.2701 26.7279C44.5694 27.0272 44.5694 27.5124 44.2701 27.8116C44.1205 27.9613 43.9244 28.0361 43.7282 28.0361Z" fill="#DE5600"/>
<path fill-rule="evenodd" clip-rule="evenodd" d="M34.7387 17.1963L44.2691 26.7267C44.5684 27.026 44.5684 27.5112 44.2691 27.8104C44.1196 27.9601 43.9234 28.0349 43.7273 28.0349C43.5312 28.0349 43.3351 27.9601 43.1855 27.8104L33.655 18.2801C32.8708 17.4958 31.5946 17.4958 30.8103 18.2801L21.2799 27.8105C20.9807 28.1098 20.4954 28.1098 20.1962 27.8105C19.8969 27.5112 19.8969 27.026 20.1962 26.7268L29.7266 17.1963C31.1084 15.8145 33.3569 15.8145 34.7387 17.1963ZM19.9664 26.497L29.4968 16.9665C31.0056 15.4578 33.4598 15.4578 34.9686 16.9665L44.499 26.4969C44.9251 26.9231 44.9252 27.614 44.499 28.0402C44.286 28.2533 44.0061 28.3599 43.7273 28.3599C43.4485 28.3599 43.1687 28.2533 42.9556 28.0402L33.4252 18.5099L33.4252 18.5099C32.7679 17.8525 31.6975 17.8525 31.0401 18.5099L21.5097 28.0403C21.5097 28.0403 21.5097 28.0403 21.5097 28.0403C21.0836 28.4665 20.3926 28.4665 19.9664 28.0403H19.9664C19.5402 27.6142 19.5402 26.9231 19.9664 26.497Z" fill="#DE5600"/>
<path d="M35.2983 39.1485H29.1678C28.7446 39.1485 28.4015 38.8054 28.4015 38.3822V31.5812C28.4015 30.2608 29.4758 29.1865 30.7962 29.1865H33.6699C34.9903 29.1865 36.0646 30.2608 36.0646 31.5812V38.3822C36.0646 38.8054 35.7215 39.1485 35.2983 39.1485ZM29.9341 37.6159H34.532V31.5812C34.532 31.1059 34.1452 30.7191 33.6699 30.7191H30.7962C30.3209 30.7191 29.9341 31.1059 29.9341 31.5812V37.6159Z" fill="#DE5600"/>
<path fill-rule="evenodd" clip-rule="evenodd" d="M35.2984 39.4724H29.168C28.5652 39.4724 28.0767 38.9837 28.0767 38.3811V31.5801C28.0767 30.0801 29.2964 28.8604 30.7964 28.8604H33.67C35.17 28.8604 36.3898 30.0801 36.3898 31.5801V38.3811C36.3898 38.9837 35.9012 39.4724 35.2984 39.4724ZM34.5321 31.5801C34.5321 31.1047 34.1454 30.718 33.67 30.718H30.7964C30.321 30.718 29.9343 31.1047 29.9343 31.5801V37.6148H34.5321V31.5801ZM34.2071 37.2898V31.5801C34.2071 31.2842 33.9659 31.043 33.67 31.043H30.7964C30.5005 31.043 30.2593 31.2842 30.2593 31.5801V37.2898H34.2071ZM29.168 39.1474H35.2984C35.7217 39.1474 36.0648 38.8043 36.0648 38.3811V31.5801C36.0648 30.2596 34.9905 29.1854 33.67 29.1854H30.7964C29.4759 29.1854 28.4017 30.2596 28.4017 31.5801V38.3811C28.4017 38.8043 28.7447 39.1474 29.168 39.1474Z" fill="#DE5600"/>
</svg>
