<svg width="73" height="73" viewBox="0 0 73 73" fill="none" xmlns="http://www.w3.org/2000/svg">
<g clip-path="url(#clip0)">
<path d="M42.6526 34.8594V30.6401H59.6671V0.96875H12.9813V30.6401H29.9958V34.8594H0.324219V72.9688H72.3242V34.8594H42.6526ZM17.2001 5.1875H55.4484V26.4213H17.2001V5.1875ZM34.2146 30.6401H38.4339V34.8594H34.2146V30.6401ZM68.1055 68.75H4.54297V39.0781H68.1055V68.75Z" fill="#DE5600"/>
<path d="M63.8867 43.2969H8.76172V64.5312H63.8867V43.2969ZM12.9805 47.5156H34.2148V60.3125H12.9805V47.5156ZM59.668 60.3125H38.4336V47.5156H59.668V60.3125Z" fill="#DE5600"/>
<path d="M42.6523 51.8047H46.8711V56.0234H42.6523V51.8047Z" fill="#DE5600"/>
<path d="M25.7773 51.8047H29.9961V56.0234H25.7773V51.8047Z" fill="#DE5600"/>
</g>
<defs>
<clipPath id="clip0">
<rect width="72" height="72" fill="white" transform="translate(0.324219 0.96875)"/>
</clipPath>
</defs>
</svg>
