<svg width="227" height="243" viewBox="0 0 227 243" fill="none" xmlns="http://www.w3.org/2000/svg">
<rect x="23.397" y="23.5049" width="203" height="203" stroke="#DE5600"/>
<path d="M124.897 242.584L140.475 227.006L109.319 227.006L124.897 242.584Z" fill="#DE5600"/>
<path fill-rule="evenodd" clip-rule="evenodd" d="M157.935 116.808C158.299 117.172 158.776 117.354 159.253 117.354C159.729 117.354 160.206 117.172 160.57 116.808C161.298 116.081 161.298 114.901 160.57 114.173L137.398 91.0013C134.038 87.6415 128.571 87.6415 125.212 91.0013L102.04 114.173C101.312 114.901 101.312 116.081 102.04 116.808C102.767 117.536 103.947 117.536 104.674 116.808L106.151 115.332V150.753C106.151 154.778 108.554 158.053 111.508 158.053H151.1C154.054 158.053 156.457 154.778 156.457 150.753V115.33L157.935 116.808ZM152.797 111.67L134.763 93.6363C132.856 91.7293 129.753 91.7293 127.846 93.6363L109.811 111.672C109.854 111.886 109.877 112.112 109.877 112.346V150.753C109.877 151.978 110.609 152.975 111.508 152.975H151.1C151.999 152.975 152.731 151.978 152.731 150.753V112.346C152.731 112.112 152.754 111.885 152.797 111.67Z" fill="#DE5600"/>
<path fill-rule="evenodd" clip-rule="evenodd" d="M158.165 116.578C158.465 116.879 158.858 117.029 159.253 117.029C159.647 117.029 160.04 116.879 160.34 116.578C160.941 115.978 160.941 115.004 160.34 114.403L137.168 91.2311C133.935 87.9982 128.674 87.9982 125.441 91.2311L102.269 114.403C101.669 115.004 101.669 115.978 102.269 116.578C102.87 117.179 103.844 117.179 104.445 116.578L106.476 114.547V150.753C106.476 152.703 107.059 154.459 107.984 155.72C108.909 156.981 110.159 157.728 111.508 157.728H151.1C152.449 157.728 153.699 156.981 154.624 155.72C155.549 154.459 156.132 152.703 156.132 150.753V114.545L158.165 116.578ZM160.57 116.808C161.298 116.081 161.298 114.901 160.57 114.173L137.398 91.0013C134.038 87.6415 128.571 87.6415 125.212 91.0013L102.04 114.173C101.312 114.901 101.312 116.081 102.04 116.808C102.767 117.536 103.947 117.536 104.674 116.808L106.151 115.332V150.753C106.151 154.778 108.554 158.053 111.508 158.053H151.1C154.054 158.053 156.457 154.778 156.457 150.753V115.33L157.935 116.808C158.299 117.172 158.776 117.354 159.253 117.354C159.729 117.354 160.206 117.172 160.57 116.808ZM153.15 111.564L153.116 111.735C153.077 111.928 153.056 112.133 153.056 112.346V150.753C153.056 151.428 152.855 152.052 152.515 152.516C152.175 152.979 151.678 153.3 151.1 153.3H111.508C110.929 153.3 110.433 152.979 110.093 152.516C109.753 152.052 109.552 151.428 109.552 150.753V112.346C109.552 112.134 109.531 111.929 109.492 111.736L109.458 111.565L127.617 93.4065C129.651 91.3726 132.959 91.3726 134.993 93.4065L153.15 111.564ZM109.811 111.672L127.846 93.6363C129.753 91.7293 132.856 91.7293 134.763 93.6363L152.797 111.67C152.754 111.885 152.731 112.112 152.731 112.346V150.753C152.731 151.978 151.999 152.975 151.1 152.975H111.508C110.609 152.975 109.877 151.978 109.877 150.753V112.346C109.877 112.112 109.854 111.886 109.811 111.672Z" fill="#DE5600"/>
<path d="M127.658 142.227C121.386 138.873 108.639 137.777 103.05 137.647V156.666L131.306 165.516L166.549 153.328L167.015 146.575L163.522 143.935L147.453 149.757L145.9 142.693C142.433 143.935 133.93 145.581 127.658 142.227Z" fill="#FFF4D9"/>
<path fill-rule="evenodd" clip-rule="evenodd" d="M165.805 143.063C164.827 142.598 163.189 142.465 162.396 142.458V142.459C161.779 142.512 161.174 142.656 160.601 142.889L149.549 147.583C149.581 147.376 149.602 147.166 149.612 146.956C149.612 143.661 146.941 140.99 143.646 140.99H130.423C129.086 140.988 127.767 140.677 126.569 140.082C122.791 138.199 118.745 136.929 114.583 136.313C113.823 136.217 113.255 136.145 112.908 136.101C112.36 136.043 111.81 135.997 111.259 135.962V135.959C110.173 135.903 108.733 135.86 107.85 135.845V135.876H104.441C104.441 134.935 103.678 134.172 102.736 134.172H89.1C88.1587 134.172 87.3955 134.935 87.3955 135.876H80.5773V139.286H87.3955V156.331H80.5773V159.74H87.3955C87.3955 160.681 88.1587 161.445 89.1 161.445H102.736C103.678 161.445 104.441 160.681 104.441 159.74V159.091L117.167 164.375C124.105 167.206 131.861 167.291 138.859 164.613L165.191 154.575C166.751 153.982 168.005 152.786 168.672 151.257C169.363 149.705 169.399 147.941 168.772 146.363C168.215 144.952 167.159 143.795 165.805 143.112V143.063ZM90.8046 158.036H101.032V137.581H90.8046V158.036ZM163.976 151.39C164.683 151.118 165.252 150.574 165.554 149.879C165.87 149.161 165.884 148.346 165.594 147.617C165.319 146.902 164.765 146.329 164.059 146.029C163.381 145.739 162.613 145.739 161.934 146.029L147.682 152.08C146.436 152.607 145.101 152.889 143.748 152.912C143.73 152.912 143.713 152.914 143.696 152.917C143.679 152.919 143.663 152.922 143.646 152.922H143.54H123.191V149.513H143.54C143.686 149.513 143.829 149.494 143.972 149.475C144.051 149.464 144.13 149.454 144.21 149.446C145.363 149.179 146.181 148.154 146.188 146.971C146.196 145.559 145.058 144.408 143.646 144.399H130.423C128.557 144.397 126.717 143.963 125.046 143.131C119.988 140.608 114.414 139.292 108.762 139.286H104.441V155.397L118.464 161.221C124.599 163.725 131.456 163.799 137.644 161.429L163.976 151.39Z" fill="#DE5600"/>
<path d="M97.6235 151.219H94.2144V154.628H97.6235V151.219Z" fill="#DE5600"/>
<path d="M131.305 108.635C124.117 108.643 118.293 114.468 118.285 121.656C118.285 128.847 124.114 134.677 131.305 134.677C138.497 134.677 144.326 128.847 144.326 121.656C144.326 114.465 138.497 108.635 131.305 108.635ZM131.305 132.072C125.552 132.072 120.889 127.409 120.889 121.656C120.889 115.903 125.552 111.239 131.305 111.239C137.056 111.245 141.716 115.905 141.722 121.656C141.722 127.409 137.058 132.072 131.305 132.072Z" fill="#DE5600"/>
<path fill-rule="evenodd" clip-rule="evenodd" d="M141.898 121.655V121.656C141.898 127.506 137.155 132.248 131.305 132.248C125.456 132.248 120.713 127.506 120.713 121.656C120.713 115.806 125.456 111.064 131.305 111.064H131.306C137.153 111.07 141.891 115.808 141.898 121.655ZM118.46 121.656C118.468 114.565 124.214 108.818 131.306 108.81C138.4 108.81 144.151 114.561 144.151 121.656C144.151 128.75 138.4 134.501 131.305 134.501C124.211 134.501 118.46 128.75 118.46 121.656ZM131.305 108.635C124.117 108.643 118.293 114.468 118.285 121.656C118.285 128.847 124.114 134.677 131.305 134.677C138.497 134.677 144.326 128.847 144.326 121.656C144.326 114.465 138.497 108.635 131.305 108.635ZM120.889 121.656C120.889 127.409 125.552 132.072 131.305 132.072C137.058 132.072 141.722 127.409 141.722 121.656C141.716 115.905 137.056 111.245 131.305 111.239C125.552 111.239 120.889 115.903 120.889 121.656Z" fill="#C4C4C4"/>
<path d="M135.427 117.306H132.25C132.618 117.516 132.901 117.769 133.099 118.067C133.297 118.359 133.429 118.688 133.493 119.056H135.427V120.395H133.475C133.353 121.001 133.064 121.532 132.609 121.987C132.16 122.442 131.565 122.778 130.824 122.993C131.104 123.139 131.34 123.355 131.533 123.641L135.068 128.533H133.405C133.079 128.533 132.834 128.401 132.67 128.139L129.573 123.781C129.473 123.635 129.366 123.533 129.249 123.475C129.132 123.411 128.954 123.378 128.715 123.378H127.201V122.092H128.873C129.654 122.092 130.278 121.938 130.745 121.628C131.218 121.313 131.53 120.902 131.681 120.395H127.184V119.056H131.725C131.603 118.513 131.308 118.096 130.841 117.804C130.381 117.507 129.745 117.358 128.934 117.358H127.201V115.967H135.427V117.306Z" fill="#DE5600"/>
<circle cx="22.8969" cy="23.0048" r="22.5136" fill="#DE5600"/>
<path d="M14.5026 27.3569V25.0529L22.9266 13.9169H25.8546V24.9569H28.2306V27.3569H25.8546V31.0049H23.0946V27.3569H14.5026ZM23.2866 17.1809L17.3346 24.9569H23.2866V17.1809Z" fill="white"/>
</svg>
