<svg width="70" height="67" viewBox="0 0 70 67" fill="none" xmlns="http://www.w3.org/2000/svg">
<rect x="0.975098" y="52.04" width="51.6348" height="49.298" transform="rotate(-90 0.975098 52.04)" fill="#FFE39C"/>
<g clip-path="url(#clip0)">
<path d="M69.2582 37.8201L68.0044 32.1992L69.2582 26.5783L64.9408 22.7674L62.6482 17.4869L56.9177 16.935L51.9578 14.0145L47.4793 16.6514L38.1916 7.6582L25.7373 19.827V12.4597H14.46V30.8459L7.10693 38.0306L9.65895 40.6424L14.46 35.9514V62.6679H62.7809L62.7487 46.6805L64.9408 41.6315L69.2582 37.8201ZM59.1222 59.0167H46.0117V47.3686L46.998 47.4639L51.9578 50.3839L56.9177 47.4639L59.098 47.2533L59.1222 59.0167ZM34.025 59.0167V47.0888H42.3605V59.0167H34.025ZM18.1116 32.3837L38.1991 12.7561L42.9257 17.3271L41.2671 17.4869L38.9749 22.7674L34.6575 26.5783L35.9112 32.1992L34.6575 37.8201L38.9749 41.6315L39.7592 43.4372H30.3733V59.0167H18.1116V32.3837ZM22.0862 16.1113V23.3947L18.1116 27.2787V16.1113H22.0862ZM60.1559 43.4832L55.7622 43.9066L51.9574 46.1466L48.1535 43.9066L43.7593 43.4832L42.0006 39.4318L38.6904 36.5099L39.652 32.1992L38.6904 27.8885L42.0006 24.9671L43.7593 20.9152L48.1531 20.4918L51.9574 18.2518L55.7617 20.4918L60.1559 20.9152L61.9151 24.9671L65.2248 27.8885L64.2632 32.1992L65.2248 36.5099L61.9151 39.4313L60.1559 43.4832Z" fill="black"/>
<path d="M46.9174 32.5684L50.2293 35.8809L57.8172 28.293" stroke="black" stroke-width="3"/>
</g>
<defs>
<clipPath id="clip0">
<rect width="62.1512" height="62.1512" fill="white" transform="translate(7.10693 4.1377)"/>
</clipPath>
</defs>
</svg>
