<svg width="73" height="73" viewBox="0 0 73 73" fill="none" xmlns="http://www.w3.org/2000/svg">
<path d="M63.9758 7.19917H51.3349V13.5377L36.4473 0.849609L0.447266 31.5306L8.91884 37.6067V68.5755H0.49176V72.7894H72.4024V68.5755H63.9758V37.6067L72.4474 31.5306L63.9758 24.3104V7.19917ZM55.5488 11.4124H59.762V20.7195L55.5488 17.1286V11.4124ZM26.1317 47.2263H46.763C45.3441 54.0378 38.9209 55.2678 38.554 55.5001V68.5761H34.3407V55.5001C33.9694 55.2645 27.5511 54.0406 26.1317 47.2263ZM30.1269 43.0141H26.1312C26.6525 40.5109 28.0845 38.2812 30.1269 36.7486V43.0141ZM42.7678 43.0141V36.7486C44.8101 38.2812 46.2422 40.5109 46.7635 43.0141H42.7678ZM42.7678 68.5761V58.3917C47.8638 55.9687 51.1943 50.8095 51.1943 45.1208C51.1943 33.1775 38.8023 30.4392 38.554 30.2694V43.0141H34.3407V30.2694C33.8518 30.604 21.6998 32.9798 21.6998 45.1208C21.6998 50.8095 25.0309 55.9687 30.1269 58.3917V68.5761H13.1327V37.4935L36.4473 17.4906L59.762 37.4935V68.5755H42.7678V68.5761ZM61.9851 33.8493L36.4473 11.9392L10.9096 33.8493L7.27803 31.245L36.4473 6.38563L65.6161 31.245L61.9851 33.8493Z" fill="#DE5600"/>
</svg>
