<svg width="227" height="243" viewBox="0 0 227 243" fill="none" xmlns="http://www.w3.org/2000/svg">
<rect x="23.397" y="23.5039" width="203" height="203" stroke="#DE5600"/>
<path d="M124.897 242.583L140.475 227.005L109.319 227.005L124.897 242.583Z" fill="#DE5600"/>
<path d="M164.776 163.634C164.776 163.633 164.776 163.633 164.776 163.634V116.145C164.776 115.79 164.63 115.459 164.386 115.216L164.39 115.212L151.585 102.407V95.0383C151.585 94.6874 151.446 94.3524 151.198 94.1057L140.645 83.5525C140.399 83.3045 140.063 83.166 139.713 83.166H97.4999C96.7704 83.166 96.1807 83.7557 96.1807 84.4852V102.407L83.3758 115.212L83.3797 115.216C83.1357 115.459 82.9893 115.79 82.9893 116.145V163.633V163.634C82.9893 163.771 83.0104 163.91 83.0552 164.046C83.2333 164.586 83.7372 164.953 84.3084 164.953H163.457C164.028 164.953 164.532 164.586 164.71 164.046C164.755 163.91 164.776 163.771 164.776 163.634ZM141.032 87.6696L147.081 93.7192H141.032V87.6696ZM162.138 118.72V161.03L133.026 139.681L162.138 118.72ZM161.428 115.981L151.585 123.068V106.138L161.428 115.981ZM138.393 85.8043V95.0383C138.393 95.7678 138.983 96.3575 139.713 96.3575H148.947V124.967L130.789 138.041L124.664 133.55C124.197 133.209 123.569 133.209 123.102 133.55L116.977 138.041L98.819 124.967V85.8043H138.393ZM114.74 139.681L85.6276 161.03V118.72L114.74 139.681ZM96.1807 123.068L86.3373 115.981L96.1807 106.138V123.068ZM88.3384 162.315L123.883 136.248L159.427 162.315H88.3384Z" fill="#DE5600"/>
<path d="M132.156 124.422H115.609C114.375 124.422 113.371 123.418 113.371 122.184V110.406C113.371 109.976 113.719 109.627 114.15 109.627C114.58 109.627 114.928 109.976 114.928 110.406V122.184C114.928 122.559 115.234 122.865 115.609 122.865H132.156C132.532 122.865 132.837 122.559 132.837 122.184V110.406C132.837 109.976 133.186 109.627 133.616 109.627C134.046 109.627 134.395 109.976 134.395 110.406V122.184C134.395 123.418 133.39 124.422 132.156 124.422Z" fill="#DE5600"/>
<path fill-rule="evenodd" clip-rule="evenodd" d="M132.156 124.748H115.61C114.196 124.748 113.046 123.598 113.046 122.185V110.406C113.046 109.797 113.54 109.303 114.15 109.303C114.759 109.303 115.253 109.797 115.253 110.406V122.185C115.253 122.381 115.414 122.541 115.61 122.541H132.156C132.352 122.541 132.513 122.381 132.513 122.185V110.406C132.513 109.797 133.007 109.303 133.616 109.303C134.226 109.303 134.72 109.797 134.72 110.406V122.185C134.72 123.598 133.57 124.748 132.156 124.748ZM115.61 124.423H132.156C133.391 124.423 134.395 123.419 134.395 122.185V110.406C134.395 109.976 134.046 109.628 133.616 109.628C133.186 109.628 132.838 109.976 132.838 110.406V122.185C132.838 122.56 132.532 122.866 132.156 122.866H115.61C115.234 122.866 114.928 122.56 114.928 122.185V110.406C114.928 109.976 114.58 109.628 114.15 109.628C113.72 109.628 113.371 109.976 113.371 110.406V122.185C113.371 123.419 114.375 124.423 115.61 124.423Z" fill="#DE5600"/>
<path d="M135.562 113.132C135.363 113.132 135.164 113.056 135.012 112.904L125.328 103.22C124.531 102.423 123.234 102.423 122.437 103.22L112.753 112.904C112.449 113.208 111.956 113.208 111.652 112.904C111.348 112.6 111.348 112.107 111.652 111.802L121.336 102.119C122.74 100.714 125.025 100.714 126.429 102.119L136.113 111.802C136.417 112.107 136.417 112.6 136.113 112.904C135.961 113.056 135.762 113.132 135.562 113.132Z" fill="#DE5600"/>
<path fill-rule="evenodd" clip-rule="evenodd" d="M125.328 103.22C124.531 102.423 123.235 102.423 122.438 103.22L112.754 112.903C112.45 113.208 111.957 113.208 111.652 112.903C111.348 112.599 111.348 112.106 111.652 111.802L121.336 102.118C122.741 100.714 125.025 100.714 126.429 102.118L136.113 111.802C136.417 112.106 136.417 112.599 136.113 112.903C135.961 113.055 135.762 113.132 135.563 113.132C135.363 113.132 135.164 113.055 135.012 112.903L125.328 103.22ZM134.782 113.133L125.098 103.449C124.428 102.779 123.337 102.779 122.667 103.449L112.983 113.133C112.983 113.133 112.983 113.133 112.983 113.133C112.552 113.564 111.854 113.564 111.423 113.133C110.992 112.702 110.992 112.003 111.423 111.572L121.107 101.889C122.638 100.357 125.128 100.357 126.659 101.889L136.343 111.572C136.774 112.003 136.774 112.702 136.343 113.133C136.128 113.349 135.845 113.457 135.563 113.457C135.281 113.457 134.998 113.349 134.782 113.133Z" fill="#DE5600"/>
<path d="M126.997 124.423H120.768C120.338 124.423 119.99 124.075 119.99 123.645V116.734C119.99 115.392 121.081 114.301 122.423 114.301H125.343C126.684 114.301 127.776 115.392 127.776 116.734V123.645C127.776 124.075 127.427 124.423 126.997 124.423ZM121.547 122.866H126.219V116.734C126.219 116.251 125.826 115.858 125.343 115.858H122.423C121.94 115.858 121.547 116.251 121.547 116.734V122.866Z" fill="#DE5600"/>
<path fill-rule="evenodd" clip-rule="evenodd" d="M126.997 124.748H120.768C120.158 124.748 119.664 124.254 119.664 123.644V116.734C119.664 115.213 120.901 113.976 122.423 113.976H125.343C126.864 113.976 128.101 115.213 128.101 116.734V123.644C128.101 124.254 127.607 124.748 126.997 124.748ZM126.219 116.734C126.219 116.251 125.826 115.858 125.343 115.858H122.423C121.94 115.858 121.547 116.251 121.547 116.734V122.866H126.219V116.734ZM125.894 122.541V116.734C125.894 116.43 125.646 116.183 125.343 116.183H122.423C122.119 116.183 121.872 116.43 121.872 116.734V122.541H125.894ZM120.768 124.423H126.997C127.427 124.423 127.776 124.074 127.776 123.644V116.734C127.776 115.392 126.684 114.301 125.343 114.301H122.423C121.081 114.301 119.989 115.392 119.989 116.734V123.644C119.989 124.074 120.338 124.423 120.768 124.423Z" fill="#DE5600"/>
<circle cx="22.8969" cy="23.0048" r="22.5136" fill="#DE5600"/>
<path d="M19.8496 16.6289V14.0609H25.2736V31.0049H22.3936V16.6289H19.8496Z" fill="white"/>
</svg>
