<svg width="73" height="73" viewBox="0 0 73 73" fill="none" xmlns="http://www.w3.org/2000/svg">
<g clip-path="url(#clip0)">
<path d="M72.8346 31.8558C72.7051 30.17 71.9268 28.6361 70.6435 27.5364L64.4158 22.1983V7.02943C64.4158 5.86449 63.4713 4.92019 62.3065 4.92019H53.8693C52.7043 4.92019 51.7882 5.86463 51.7882 7.02943V11.3506L41.1132 2.25281C38.7268 0.208264 35.2627 0.208544 32.8839 2.24677L3.06531 27.5361C0.428167 29.7957 0.0860262 33.7831 2.38103 36.462C4.13027 38.4962 6.93223 39.1447 9.32089 38.3052V70.5905C9.32089 71.7555 10.2372 72.6998 11.402 72.6998H62.3064C63.4713 72.6998 64.4156 71.7553 64.4156 70.5905V38.3056C66.8813 39.1775 69.6242 38.4468 71.3297 36.4592C72.4294 35.1756 72.9639 33.5407 72.8346 31.8558ZM55.9785 9.13867H60.2253V18.5822L55.9785 14.9663V9.13867ZM45.4602 68.4813H28.2765V51.5787H45.4602V68.4813ZM60.2253 68.4813H49.6507V49.4976C49.6507 48.3326 48.7062 47.3883 47.5414 47.3883H26.1671C25.0022 47.3883 24.086 48.3328 24.086 49.4976V68.4813H13.5114V35.2714L36.9878 15.357L60.2254 35.2517L60.2253 68.4813ZM68.1271 33.7131C67.3793 34.5847 66.0498 34.7125 65.1518 33.9424L38.3675 10.9834C37.5807 10.3088 36.4205 10.306 35.6303 10.9764C35.0595 11.4604 8.66951 33.8465 8.55785 33.9413C7.67445 34.6972 6.33851 34.5941 5.58208 33.7142C4.82482 32.8304 4.92719 31.496 5.80272 30.7456L35.6215 5.45612C36.4174 4.77437 37.5725 4.77423 38.3679 5.45584L67.8983 30.7396C68.7812 31.4961 68.8834 32.8307 68.1271 33.7131Z" fill="#DE5600"/>
<path d="M39.1035 60.0437C40.2684 60.0437 41.2127 59.0993 41.2127 57.9344C41.2127 56.7695 40.2684 55.8252 39.1035 55.8252C37.9386 55.8252 36.9943 56.7695 36.9943 57.9344C36.9943 59.0993 37.9386 60.0437 39.1035 60.0437Z" fill="#DE5600"/>
<rect x="20.2139" y="43.0469" width="30.8678" height="25.4207" fill="white"/>
<path d="M48.7852 45.0084C48.2091 45.0084 47.6334 44.7886 47.1939 44.349C44.4329 41.5867 40.7605 40.0654 36.8534 40.0654C32.9462 40.0654 29.2738 41.5867 26.5128 44.349C25.6343 45.2279 24.2095 45.2282 23.3307 44.3497C22.4519 43.4712 22.4515 42.0466 23.33 41.1678C26.9411 37.5551 31.7437 35.5654 36.8534 35.5654C41.963 35.5654 46.7656 37.555 50.3767 41.1678C51.2552 42.0467 51.2548 43.4712 50.376 44.3497C49.9365 44.7887 49.3607 45.0084 48.7852 45.0084Z" fill="#DE5600"/>
<path d="M43.2175 50.5757C42.6416 50.5757 42.0659 50.3561 41.6266 49.9168C40.3521 48.6423 38.6569 47.9404 36.8529 47.9404C35.049 47.9404 33.3538 48.6423 32.0793 49.9168C31.2007 50.7954 29.776 50.7954 28.8974 49.9168C28.0186 49.038 28.0186 47.6135 28.8974 46.7349C31.0216 44.6104 33.8471 43.4404 36.8529 43.4404C39.8588 43.4404 42.6842 44.6104 44.8085 46.7349C45.6873 47.6135 45.6873 49.0381 44.8085 49.9168C44.3691 50.3561 43.7933 50.5757 43.2175 50.5757Z" fill="#DE5600"/>
<path d="M36.853 58.9551C34.9921 58.9551 33.478 57.441 33.478 55.5801C33.478 53.7192 34.9921 52.2051 36.853 52.2051C38.7139 52.2051 40.228 53.7192 40.228 55.5801C40.228 57.441 38.7139 58.9551 36.853 58.9551Z" fill="#DE5600"/>
</g>
<defs>
<clipPath id="clip0">
<rect width="72" height="72" fill="white" transform="translate(0.853516 0.708984)"/>
</clipPath>
</defs>
</svg>
