<svg width="76" height="67" viewBox="0 0 76 67" fill="none" xmlns="http://www.w3.org/2000/svg">
<rect x="0.70752" y="0.189453" width="75.0915" height="39.5502" fill="#FFE39C"/>
<g clip-path="url(#clip0)">
<path d="M66.8715 41.2637V12.5132C66.8715 11.5459 66.0875 10.7619 65.1202 10.7619H56.2469V8.89388C56.2469 7.92656 55.4629 7.14258 54.4956 7.14258C53.5283 7.14258 52.7443 7.92656 52.7443 8.89388V10.7619H45.7391V8.89388C45.7391 7.92656 44.9552 7.14258 43.9878 7.14258C43.0205 7.14258 42.2365 7.92656 42.2365 8.89388V10.7619H35.2314V8.89388C35.2314 7.92656 34.4474 7.14258 33.4801 7.14258C32.5127 7.14258 31.7288 7.92656 31.7288 8.89388V10.7619H24.7236V8.89388C24.7236 7.92656 23.9396 7.14258 22.9723 7.14258C22.005 7.14258 21.221 7.92656 21.221 8.89388V10.7619H12.3477C11.3804 10.7619 10.5964 11.5459 10.5964 12.5132V58.1637C10.5964 59.131 11.3804 59.915 12.3477 59.915H41.5132C44.3445 64.1359 49.1592 66.9202 54.6124 66.9202C63.3032 66.9202 70.3741 59.8493 70.3741 51.1585C70.3741 47.4142 69.0606 43.9709 66.8715 41.2637ZM21.221 14.2645V16.0158C21.221 16.9831 22.005 17.7671 22.9723 17.7671C23.9396 17.7671 24.7236 16.9831 24.7236 16.0158V14.2645H31.7288V16.0158C31.7288 16.9831 32.5127 17.7671 33.4801 17.7671C34.4474 17.7671 35.2314 16.9831 35.2314 16.0158V14.2645H42.2365V16.0158C42.2365 16.9831 43.0205 17.7671 43.9878 17.7671C44.9552 17.7671 45.7391 16.9831 45.7391 16.0158V14.2645H52.7443V16.0158C52.7443 16.9831 53.5283 17.7671 54.4956 17.7671C55.4629 17.7671 56.2469 16.9831 56.2469 16.0158V14.2645H63.3689V21.2697H14.099V14.2645H21.221ZM14.099 56.4124V24.7723H63.3689V38.0594C60.8628 36.3788 57.85 35.3968 54.6124 35.3968C49.0785 35.3968 44.2022 38.2641 41.3892 42.5904C41.1525 42.4709 40.8857 42.402 40.602 42.402H37.0994C36.1321 42.402 35.3481 43.186 35.3481 44.1533C35.3481 45.1206 36.1321 45.9046 37.0994 45.9046H39.7523C39.3569 47.0202 39.0833 48.1932 38.9488 49.4072H37.0994C36.1321 49.4072 35.3481 50.1912 35.3481 51.1585C35.3481 52.1258 36.1321 52.9098 37.0994 52.9098H38.9488C39.0833 54.1239 39.3565 55.2969 39.7523 56.4124H14.099ZM54.6124 63.4176C47.8526 63.4176 42.3533 57.9183 42.3533 51.1585C42.3533 44.3987 47.8526 38.8994 54.6124 38.8994C61.3722 38.8994 66.8715 44.3987 66.8715 51.1585C66.8715 57.9183 61.3722 63.4176 54.6124 63.4176Z" fill="black"/>
<path d="M61.6176 49.4075H56.3637V44.1536C56.3637 43.1863 55.5797 42.4023 54.6124 42.4023C53.6451 42.4023 52.8611 43.1863 52.8611 44.1536V51.1588C52.8611 52.1262 53.6451 52.9101 54.6124 52.9101H61.6176C62.5849 52.9101 63.3689 52.1262 63.3689 51.1588C63.3689 50.1915 62.5849 49.4075 61.6176 49.4075Z" fill="black"/>
<path d="M26.4748 28.3916H22.9722C22.0049 28.3916 21.2209 29.1756 21.2209 30.1429C21.2209 31.1102 22.0049 31.8942 22.9722 31.8942H26.4748C27.4422 31.8942 28.2261 31.1102 28.2261 30.1429C28.2261 29.1756 27.4422 28.3916 26.4748 28.3916Z" fill="black"/>
<path d="M26.4748 35.3975H22.9722C22.0049 35.3975 21.2209 36.1814 21.2209 37.1488C21.2209 38.1161 22.0049 38.9001 22.9722 38.9001H26.4748C27.4422 38.9001 28.2261 38.1161 28.2261 37.1488C28.2261 36.1814 27.4422 35.3975 26.4748 35.3975Z" fill="black"/>
<path d="M26.4748 42.4023H22.9722C22.0049 42.4023 21.2209 43.1863 21.2209 44.1536C21.2209 45.121 22.0049 45.9049 22.9722 45.9049H26.4748C27.4422 45.9049 28.2261 45.121 28.2261 44.1536C28.2261 43.1863 27.4422 42.4023 26.4748 42.4023Z" fill="black"/>
<path d="M37.0996 31.8942H40.6022C41.5695 31.8942 42.3535 31.1102 42.3535 30.1429C42.3535 29.1756 41.5695 28.3916 40.6022 28.3916H37.0996C36.1322 28.3916 35.3483 29.1756 35.3483 30.1429C35.3483 31.1102 36.1322 31.8942 37.0996 31.8942Z" fill="black"/>
<path d="M37.0996 38.9001H40.6022C41.5695 38.9001 42.3535 38.1161 42.3535 37.1488C42.3535 36.1814 41.5695 35.3975 40.6022 35.3975H37.0996C36.1322 35.3975 35.3483 36.1814 35.3483 37.1488C35.3483 38.1161 36.1322 38.9001 37.0996 38.9001Z" fill="black"/>
<path d="M26.4748 49.4072H22.9722C22.0049 49.4072 21.2209 50.1912 21.2209 51.1585C21.2209 52.1258 22.0049 52.9098 22.9722 52.9098H26.4748C27.4422 52.9098 28.2261 52.1258 28.2261 51.1585C28.2261 50.1912 27.4422 49.4072 26.4748 49.4072Z" fill="black"/>
<path d="M51.1098 31.8942H54.6124C55.5797 31.8942 56.3637 31.1102 56.3637 30.1429C56.3637 29.1756 55.5797 28.3916 54.6124 28.3916H51.1098C50.1425 28.3916 49.3585 29.1756 49.3585 30.1429C49.3585 31.1102 50.1425 31.8942 51.1098 31.8942Z" fill="black"/>
</g>
<defs>
<clipPath id="clip0">
<rect width="59.7776" height="59.7776" fill="white" transform="translate(10.5964 7.14258)"/>
</clipPath>
</defs>
</svg>
