<svg width="227" height="243" viewBox="0 0 227 243" fill="none" xmlns="http://www.w3.org/2000/svg">
<rect x="23.397" y="23.5049" width="203" height="203" stroke="#DE5600"/>
<path d="M124.897 242.584L140.475 227.006L109.319 227.006L124.897 242.584Z" fill="#DE5600"/>
<path d="M113.285 86.5068C129.498 86.5068 142.688 99.697 142.688 115.91C142.688 123.055 140.125 129.613 135.87 134.714L139.576 138.42L141.466 136.529C142.509 135.485 144.202 135.485 145.246 136.529C146.165 137.448 162.705 153.988 163.561 154.844C166.695 157.978 166.695 163.051 163.561 166.185C160.427 169.319 155.355 169.319 152.22 166.185C151.388 165.353 134.802 148.766 133.905 147.87C132.861 146.826 132.861 145.133 133.905 144.09L135.796 142.199L132.09 138.494C126.989 142.749 120.432 145.312 113.285 145.312C97.0728 145.312 83.8828 132.122 83.8828 115.91C83.8828 99.6968 97.0728 86.5068 113.285 86.5068ZM156.001 162.405C157.043 163.447 158.739 163.447 159.781 162.405C160.823 161.362 160.823 159.667 159.781 158.625L150.478 149.322L146.698 153.102L156.001 162.405ZM142.918 149.322L146.698 145.542L143.356 142.2L139.576 145.98L142.918 149.322ZM113.285 139.966C126.55 139.966 137.342 129.174 137.342 115.91C137.342 102.645 126.55 91.853 113.285 91.853C100.021 91.853 89.2288 102.645 89.2288 115.91C89.2288 129.174 100.021 139.966 113.285 139.966Z" fill="#DE5600"/>
<path fill-rule="evenodd" clip-rule="evenodd" d="M134.247 134.788L139.576 140.116L142.314 137.378C142.889 136.802 143.822 136.802 144.397 137.378L162.712 155.693C165.378 158.358 165.378 162.671 162.712 165.336L163.561 166.185C166.695 163.051 166.695 157.978 163.561 154.844L145.246 136.529C144.202 135.485 142.509 135.485 141.466 136.529L139.576 138.42L135.87 134.714C140.125 129.613 142.688 123.055 142.688 115.91C142.688 99.697 129.498 86.5068 113.285 86.5068C97.0728 86.5068 83.8828 99.6968 83.8828 115.91C83.8828 132.122 97.0728 145.312 113.285 145.312C120.432 145.312 126.989 142.749 132.09 138.494L135.796 142.199L133.905 144.09C132.861 145.133 132.861 146.826 133.905 147.87L152.22 166.185L153.069 165.336L134.754 147.021C134.178 146.446 134.178 145.513 134.754 144.938L137.492 142.199L132.164 136.871L131.322 137.573C126.428 141.655 120.139 144.112 113.285 144.112C97.7354 144.112 85.0826 131.46 85.0826 115.91C85.0826 100.359 97.7354 87.7066 113.285 87.7066C128.836 87.7066 141.488 100.36 141.488 115.91C141.488 122.763 139.031 129.052 134.949 133.946L134.247 134.788ZM152.22 166.185L153.069 165.336C155.734 168.002 160.047 168.002 162.712 165.336L163.561 166.185C160.427 169.319 155.355 169.319 152.22 166.185ZM156.001 162.405C157.043 163.447 158.739 163.447 159.781 162.405C160.823 161.362 160.823 159.667 159.781 158.625L150.478 149.322L146.698 153.102L156.001 162.405ZM160.629 163.253C162.14 161.742 162.14 159.287 160.629 157.776C160.629 157.776 160.629 157.776 160.629 157.776L150.478 147.625L145.001 153.102L155.152 163.253C156.663 164.764 159.118 164.764 160.629 163.253ZM142.918 151.018L148.394 145.542L143.356 140.503L137.879 145.98L142.918 151.018ZM142.918 149.322L146.698 145.542L143.356 142.2L139.576 145.98L142.918 149.322ZM113.285 141.166C127.213 141.166 138.542 129.837 138.542 115.91C138.542 101.982 127.213 90.6532 113.285 90.6532C99.3581 90.6532 88.029 101.982 88.029 115.91C88.029 129.837 99.3579 141.166 113.285 141.166ZM137.342 115.91C137.342 129.174 126.55 139.966 113.285 139.966C100.021 139.966 89.2288 129.174 89.2288 115.91C89.2288 102.645 100.021 91.853 113.285 91.853C126.55 91.853 137.342 102.645 137.342 115.91Z" fill="#FFF4D9"/>
<path d="M122.604 127.522H103.471C102.044 127.522 100.882 126.361 100.882 124.934V111.314C100.882 110.817 101.286 110.414 101.783 110.414C102.28 110.414 102.683 110.817 102.683 111.314V124.934C102.683 125.368 103.037 125.722 103.471 125.722H122.604C123.039 125.722 123.392 125.368 123.392 124.934V111.314C123.392 110.817 123.795 110.414 124.292 110.414C124.79 110.414 125.193 110.817 125.193 111.314V124.934C125.193 126.361 124.031 127.522 122.604 127.522Z" fill="#DE5600"/>
<path fill-rule="evenodd" clip-rule="evenodd" d="M122.604 127.846H103.471C101.864 127.846 100.558 126.539 100.558 124.933V111.313C100.558 110.637 101.106 110.088 101.783 110.088C102.46 110.088 103.008 110.637 103.008 111.313V124.933C103.008 125.188 103.216 125.395 103.471 125.395H122.604C122.859 125.395 123.067 125.188 123.067 124.933V111.313C123.067 110.637 123.616 110.088 124.292 110.088C124.969 110.088 125.518 110.637 125.518 111.313V124.933C125.518 126.539 124.211 127.846 122.604 127.846ZM103.471 127.521H122.604C124.032 127.521 125.193 126.36 125.193 124.933V111.313C125.193 110.816 124.79 110.413 124.292 110.413C123.795 110.413 123.392 110.816 123.392 111.313V124.933C123.392 125.367 123.039 125.72 122.604 125.72H103.471C103.037 125.72 102.683 125.367 102.683 124.933V111.313C102.683 110.816 102.28 110.413 101.783 110.413C101.286 110.413 100.883 110.816 100.883 111.313V124.933C100.883 126.36 102.044 127.521 103.471 127.521Z" fill="#DE5600"/>
<path d="M126.543 114.464C126.312 114.464 126.082 114.376 125.906 114.2L114.708 103.003C113.787 102.081 112.287 102.081 111.366 103.003L100.168 114.201C99.8165 114.552 99.2464 114.552 98.8948 114.201C98.5432 113.849 98.5432 113.279 98.8948 112.927L110.093 101.729C111.716 100.106 114.358 100.106 115.982 101.729L127.179 112.927C127.531 113.279 127.531 113.849 127.179 114.2C127.004 114.376 126.773 114.464 126.543 114.464Z" fill="#DE5600"/>
<path fill-rule="evenodd" clip-rule="evenodd" d="M114.479 103.234L114.479 103.234C113.685 102.44 112.391 102.44 111.597 103.234L100.399 114.432C100.399 114.432 100.399 114.432 100.399 114.432C99.9202 114.911 99.1443 114.911 98.6658 114.432C98.1872 113.954 98.1872 113.178 98.6658 112.699L109.864 101.501L110.085 101.722L109.864 101.501C111.614 99.7508 114.462 99.7508 116.212 101.501L127.41 112.699C127.889 113.178 127.889 113.953 127.41 114.432C127.171 114.671 126.857 114.791 126.544 114.791C126.23 114.791 125.916 114.671 125.677 114.432L114.479 103.234ZM125.907 114.202C126.083 114.378 126.313 114.466 126.544 114.466C126.774 114.466 127.004 114.378 127.18 114.202C127.532 113.851 127.532 113.281 127.18 112.929L115.982 101.731C114.359 100.108 111.717 100.108 110.093 101.731L98.8956 112.929C98.544 113.281 98.544 113.851 98.8956 114.202C99.2472 114.554 99.8173 114.554 100.169 114.202L111.367 103.005C112.288 102.083 113.788 102.083 114.709 103.005L125.907 114.202Z" fill="#DE5600"/>
<path d="M116.639 127.523H109.436C108.939 127.523 108.536 127.12 108.536 126.623V118.632C108.536 117.081 109.798 115.818 111.349 115.818H114.726C116.277 115.818 117.54 117.081 117.54 118.632V126.623C117.54 127.12 117.136 127.523 116.639 127.523ZM110.337 125.723H115.739V118.632C115.739 118.074 115.284 117.619 114.726 117.619H111.349C110.791 117.619 110.337 118.074 110.337 118.632V125.723Z" fill="#DE5600"/>
<path fill-rule="evenodd" clip-rule="evenodd" d="M116.638 127.847H109.435C108.759 127.847 108.21 127.298 108.21 126.622V118.631C108.21 116.9 109.618 115.492 111.349 115.492H114.725C116.456 115.492 117.864 116.9 117.864 118.631V126.622C117.864 127.298 117.315 127.847 116.638 127.847ZM115.738 118.631C115.738 118.072 115.284 117.618 114.725 117.618H111.349C110.79 117.618 110.336 118.072 110.336 118.631V125.721H115.738V118.631ZM115.413 125.396V118.631C115.413 118.252 115.104 117.943 114.725 117.943H111.349C110.97 117.943 110.661 118.252 110.661 118.631V125.396H115.413ZM109.435 127.522H116.638C117.136 127.522 117.539 127.119 117.539 126.622V118.631C117.539 117.079 116.277 115.817 114.725 115.817H111.349C109.797 115.817 108.535 117.079 108.535 118.631V126.622C108.535 127.119 108.938 127.522 109.435 127.522Z" fill="#DE5600"/>
<circle cx="22.8974" cy="23.0048" r="22.5136" fill="#DE5600"/>
<path d="M27.8815 17.2209H19.5055V22.2609C19.8895 21.7649 20.4335 21.3729 21.1375 21.0849C21.8415 20.7809 22.6175 20.6289 23.4655 20.6289C24.6495 20.6289 25.6335 20.8849 26.4175 21.3969C27.2015 21.8929 27.7775 22.5569 28.1455 23.3889C28.5295 24.2209 28.7215 25.1409 28.7215 26.1489C28.7215 27.9249 28.2255 29.3649 27.2335 30.4689C26.2415 31.5569 24.8015 32.1009 22.9135 32.1009C21.1375 32.1009 19.7055 31.6289 18.6175 30.6849C17.5295 29.7409 16.9375 28.4849 16.8415 26.9169H19.5295C19.6735 27.7809 20.0255 28.4609 20.5855 28.9569C21.1615 29.4529 21.8895 29.7009 22.7695 29.7009C23.8575 29.7009 24.6735 29.3729 25.2175 28.7169C25.7615 28.0609 26.0335 27.1889 26.0335 26.1009C26.0335 25.0769 25.7535 24.2769 25.1935 23.7009C24.6335 23.1089 23.8335 22.8129 22.7935 22.8129C22.0575 22.8129 21.4095 22.9729 20.8495 23.2929C20.3055 23.6129 19.9055 24.0369 19.6495 24.5649H16.9855V14.7969H27.8815V17.2209Z" fill="white"/>
</svg>
